<svg version="1.1" id="Layer_1" xmlns="http://www.w3.org/2000/svg" x="0" y="0" viewBox="0 0 32 32" style="enable-background:new 0 0 32 32" xml:space="preserve"><style>.st0{fill:#600}.st1{fill:none}.st2{fill:#610000}.st3{fill:maroon}.st4{fill:#850000}.st5{fill:#8a0000}.st6{fill:#8f0000}.st7{fill:#940000}.st8{fill:#900}.st9{fill:#7a0000}.st10{fill:#750000}.st11{fill:#6b0000}.st15{fill:#9e0000}.st16{fill:#a30000}.st17{fill:#a90000}.st18{fill:#ae0000}.st19{fill:#b30000}.st20{fill:#b80000}.st21{fill:#bd0000}.st22{fill:#c20000}.st23{fill:#c70000}.st24{fill:#c00}.st25{fill:#d20000}.st26{fill:#d70000}.st27{fill:#700000}</style><path class="st0" d="M16.995 23.946l-.445.224c.194-.098.384-.202.572-.31.726-.379 1.28-.856 1.832-1.408.553-.554 1.044-1.125 1.496-1.944.44-.736.836-1.505 1.445-3.265l-.148.937a13.63 13.63 0 0 1-1.099 2.35 9.312 9.312 0 0 1-1.392 1.81 8.219 8.219 0 0 1-2.26 1.606"/><path id="SVGID_20_" class="st1" d="M17.093 23.897l-.543.273c.194-.098.384-.202.572-.31.726-.379 1.28-.856 1.832-1.408.553-.554 1.044-1.125 1.496-1.944.44-.736.836-1.505 1.445-3.265l-.148.937a13.63 13.63 0 0 1-1.099 2.35 9.312 9.312 0 0 1-1.392 1.81 8.219 8.219 0 0 1-2.163 1.557z"/><path class="st2" d="M15.189 20.053l-.095-.867.019-3.76.1-.128z"/><path class="st3" d="M13.245 25.407l-2.272-1.085a5.3 5.3 0 0 0 .308.135l2.273 1.086a5.3 5.3 0 0 1-.309-.136"/><path class="st4" d="M13.554 25.543l-2.273-1.086c.224.09.454.164.69.222l2.272 1.086a5.25 5.25 0 0 1-.69-.222"/><path class="st5" d="M14.243 25.765l-2.272-1.085a5.38 5.38 0 0 0 .797.135L15.04 25.9a5.617 5.617 0 0 1-.797-.135"/><path class="st6" d="M15.04 25.9l-2.272-1.085a6.25 6.25 0 0 0 1.043.01l2.272 1.085a6.261 6.261 0 0 1-1.043-.01"/><path class="st7" d="M16.083 25.91l-2.272-1.085a8.217 8.217 0 0 0 1.671-.306c.106-.03.211-.062.315-.095l2.272 1.085a9.927 9.927 0 0 1-.315.096 8.21 8.21 0 0 1-1.671.305"/><path class="st8" d="M18.07 25.51l-2.273-1.086a8.974 8.974 0 0 0 2.144-1.013l2.272 1.085a8.98 8.98 0 0 1-2.144 1.013"/><path class="st7" d="M20.213 24.496L17.94 23.41c.414-.271.8-.578 1.16-.919l2.271 1.085c-.359.342-.745.648-1.16.919"/><path class="st6" d="M21.372 23.577L19.1 22.492a8.262 8.262 0 0 0 .606-.64l2.272 1.086a8.338 8.338 0 0 1-.606.64"/><path class="st5" d="M21.978 22.938l-2.272-1.086c.166-.194.326-.4.48-.615l2.272 1.085a9.193 9.193 0 0 1-.48.616"/><path class="st4" d="M22.458 22.322l-2.272-1.085c.15-.21.293-.428.432-.657l2.272 1.085c-.139.23-.282.448-.432.657"/><path class="st3" d="M22.89 21.665l-2.272-1.085.03-.05c.133-.223.262-.454.385-.695l2.272 1.085a11.8 11.8 0 0 1-.415.745"/><path class="st9" d="M23.305 20.92l-2.272-1.085c.146-.286.285-.586.417-.899l2.272 1.086c-.132.313-.271.612-.417.899"/><path class="st10" d="M23.722 20.022l-2.272-1.085c.104-.245.202-.497.297-.757l2.272 1.085c-.094.26-.193.513-.297.757"/><path id="SVGID_18_" class="st1" d="M13.245 25.407l-2.272-1.085c.428.204.877.348 1.35.432.96.171 2.014.093 3.16-.235.744-.212 1.431-.5 2.06-.864s1.2-.801 1.713-1.315a9.312 9.312 0 0 0 1.392-1.81 13.64 13.64 0 0 0 1.1-2.35l2.271 1.085a13.63 13.63 0 0 1-1.098 2.35 9.312 9.312 0 0 1-1.393 1.81 8.219 8.219 0 0 1-1.713 1.316 9.098 9.098 0 0 1-2.06.864c-1.146.327-2.2.405-3.16.235a5.252 5.252 0 0 1-1.35-.433z"/><path class="st2" d="M25.21 18.826l-1.19.439-6.559 1.874.947-.37z"/><path class="st0" d="M24.283 9.206L22.011 8.12a7.735 7.735 0 0 0-1.492-1.137 6.542 6.542 0 0 0-.45-.238l2.271 1.086c.152.072.302.151.45.237a7.73 7.73 0 0 1 1.493 1.138"/><path id="SVGID_16_" class="st1" d="M20.068 6.745L22.34 7.83c.152.073.302.152.45.238a7.73 7.73 0 0 1 1.493 1.138L22.011 8.12a7.735 7.735 0 0 0-1.492-1.137 6.563 6.563 0 0 0-.45-.238z"/><path class="st11" d="M17.461 21.139l-2.272-1.086.024-4.755 2.272 1.085z"/><path style="fill:#a40000" d="M17.485 16.383l-2.272-1.085 11.392-3.255 2.272 1.086z"/><path style="fill:#db0000" d="M18.427 17.009l-.942-.626 11.392-3.254.109.863z"/><path style="fill:#930000" d="M18.408 20.77l-.947.369.024-4.756.942.626z"/><path class="st7" d="M17.587 2.597l-2.273-1.085a13.06 13.06 0 0 1 2.662-.484l2.272 1.085c-.859.061-1.746.222-2.662.484"/><path class="st6" d="M20.248 2.113l-2.272-1.085a10.958 10.958 0 0 1 1.754.018l2.272 1.086a10.437 10.437 0 0 0-1.754-.019"/><path class="st5" d="M22.002 2.132L19.73 1.046a9.674 9.674 0 0 1 1.3.216L23.3 2.347a9.697 9.697 0 0 0-1.3-.215"/><path class="st4" d="M23.301 2.347L21.03 1.262c.294.072.586.167.876.284l2.273 1.085a6.66 6.66 0 0 0-.877-.284"/><path class="st3" d="M24.178 2.63l-2.272-1.084a7.3 7.3 0 0 1 .43.189l2.272 1.085a7.367 7.367 0 0 0-.43-.19"/><path id="SVGID_14_" class="st1" d="M22.336 1.734l2.272 1.086a6.765 6.765 0 0 0-1.501-.518 10.077 10.077 0 0 0-2.663-.201c-.92.05-1.872.214-2.858.496l-2.272-1.085a12.91 12.91 0 0 1 2.858-.496c.92-.05 1.808.017 2.662.2.505.109 1.005.282 1.502.518z"/><path class="st0" d="M24.818 8.74l-.535.466a7.735 7.735 0 0 0-1.492-1.138 6.203 6.203 0 0 0-1.614-.656 6.224 6.224 0 0 0-1.736-.174 7.804 7.804 0 0 0-1.857.307c-.641.183-1.253.43-1.834.738l.414-.22c.6-.33 1.236-.591 1.943-.767.702-.23 1.317-.298 1.945-.321.669-.056 1.216-.001 1.823.183.585.145 1.137.33 1.689.686.54.312 1.053.664 1.254.896"/><path id="SVGID_12_" class="st1" d="M15.75 8.284l.504-.27a7.926 7.926 0 0 1 1.853-.717c.702-.23 1.317-.299 1.945-.322.669-.056 1.216 0 1.823.183.585.145 1.137.331 1.69.686.538.312 1.052.664 1.253.896l-.535.466a7.735 7.735 0 0 0-1.492-1.138 6.203 6.203 0 0 0-1.614-.656 6.224 6.224 0 0 0-1.736-.174 7.804 7.804 0 0 0-1.857.307c-.641.183-1.253.43-1.834.739z"/><path class="st9" d="M9.907 21.035l-.09-.499.014.077.091.502a6.976 6.976 0 0 1-.015-.08"/><path class="st3" d="M9.922 21.114l-.091-.501c.044.249.097.49.16.724l.11.522c-.07-.24-.13-.488-.179-.745"/><path class="st4" d="M10.1 21.86l-.108-.523c.061.228.132.449.212.662l.127.547a8.943 8.943 0 0 1-.23-.687"/><path class="st5" d="M10.331 22.546L10.204 22a6.931 6.931 0 0 0 .218.516l.136.577a9.157 9.157 0 0 1-.227-.546"/><path class="st6" d="M10.558 23.092l-.136-.577c.064.138.134.272.207.403l.138.6a7.409 7.409 0 0 1-.21-.426"/><path class="st7" d="M10.767 23.518l-.138-.6c.068.122.14.24.216.357l.14.62a6.328 6.328 0 0 1-.218-.377"/><path class="st8" d="M10.985 23.895l-.14-.62c.076.116.155.229.238.339l.145.639a5.631 5.631 0 0 1-.243-.358"/><path class="st15" d="M11.227 24.253l-.144-.64c.087.117.18.23.276.34l.157.658a5.298 5.298 0 0 1-.289-.358"/><path class="st16" d="M11.516 24.611l-.157-.657c.11.125.224.247.344.364l.187.676a5.18 5.18 0 0 1-.374-.383"/><path class="st17" d="M11.89 24.994l-.187-.676a6.374 6.374 0 0 0 .543.471l.242.722a5.342 5.342 0 0 1-.275-.242 5.388 5.388 0 0 1-.323-.275"/><path class="st18" d="M12.488 25.511l-.242-.722c.1.078.203.152.307.222l.262.746a4.939 4.939 0 0 1-.327-.246"/><path class="st19" d="M12.815 25.758l-.262-.747c.116.078.234.151.354.22l.281.76a4.734 4.734 0 0 1-.373-.233"/><path class="st20" d="M13.188 25.99l-.28-.76c.139.08.28.152.425.218l.3.763c-.15-.065-.299-.138-.445-.22"/><path class="st21" d="M13.634 26.211l-.301-.763c.174.08.353.15.535.21l.327.757a5.265 5.265 0 0 1-.561-.204"/><path class="st22" d="M14.195 26.415l-.327-.758c.214.07.433.127.656.17l.36.755a6.522 6.522 0 0 1-.69-.167"/><path class="st23" d="M14.884 26.582l-.36-.755a5.455 5.455 0 0 0 .637.084l.388.765a7.206 7.206 0 0 1-.59-.08l-.075-.014"/><path class="st24" d="M15.549 26.676l-.388-.765a6.2 6.2 0 0 0 .646.013l.408.78a6.45 6.45 0 0 1-.666-.028"/><path class="st25" d="M16.215 26.704l-.408-.78c.294-.008.595-.037.903-.086l.442.785a6.354 6.354 0 0 1-.937.08"/><path class="st26" d="M17.152 26.623l-.442-.785a8.82 8.82 0 0 0 1.044-.234 9.103 9.103 0 0 0 2.061-.863 8.239 8.239 0 0 0 1.041-.712l.709.656c-.34.283-.705.537-1.129.758-.665.384-1.348.709-2.163.908a7.495 7.495 0 0 1-1.12.272"/><path class="st25" d="M21.564 24.685l-.708-.656c.198-.16.389-.328.573-.505l.733.617a9.876 9.876 0 0 1-.598.544"/><path class="st24" d="M22.162 24.14l-.733-.617.1-.098a8.4 8.4 0 0 0 .496-.543l.777.585a11.238 11.238 0 0 1-.64.674"/><path class="st23" d="M22.802 23.467l-.777-.585c.128-.153.252-.31.372-.476l.803.566c-.13.174-.262.338-.398.495"/><path class="st22" d="M23.2 22.972l-.803-.566a9.92 9.92 0 0 0 .253-.363l.822.537c-.09.137-.18.268-.272.392"/><path class="st21" d="M23.472 22.58l-.822-.537c.068-.102.134-.205.2-.311l.837.496c-.07.123-.143.24-.215.352"/><path class="st20" d="M23.687 22.228l-.837-.496a10.997 10.997 0 0 0 .376-.66l.868.439c-.11.206-.218.394-.33.58a9.54 9.54 0 0 1-.077.137"/><path class="st19" d="M24.094 21.51l-.868-.439c.084-.157.164-.319.243-.484l.908.357c-.097.207-.19.393-.283.567"/><path class="st18" d="M24.377 20.944l-.908-.357c.078-.164.153-.33.227-.502l.98.172c-.105.256-.203.482-.3.686"/><path class="st17" d="M24.676 20.257l-.98-.172c.099-.232.194-.472.286-.718l1.157-.34c-.169.48-.321.882-.463 1.23"/><path class="st16" d="M25.14 19.027l-1.158.34.037-.102 1.19-.439-.07.201"/><path id="SVGID_10_" class="st1" d="M9.907 21.035l-.065-.361c.094.511.23.99.405 1.438a6.21 6.21 0 0 0 1.742 2.468c.776.669 1.645 1.089 2.606 1.26s2.014.092 3.16-.235a9.103 9.103 0 0 0 2.06-.864 8.219 8.219 0 0 0 1.713-1.316 9.312 9.312 0 0 0 1.393-1.81c.415-.693.78-1.477 1.098-2.35l1.19-.439c-.609 1.76-1.004 2.53-1.445 3.265-.451.819-.942 1.39-1.495 1.944-.552.552-1.106 1.03-1.833 1.408-.664.384-1.347.709-2.163.908-1.26.406-2.302.424-3.314.244-1.015-.18-1.91-.539-2.745-1.325-.894-.703-1.429-1.57-1.836-2.604a8.513 8.513 0 0 1-.47-1.631z"/><path class="st26" d="M18.105 3.343l-.518-.746c.456-.13.906-.236 1.349-.317l.469.77c-.434.082-.87.183-1.3.293"/><path class="st25" d="M19.404 3.05l-.468-.77c.487-.088.966-.147 1.436-.175l.439.76c-.457.028-.93.095-1.407.185"/><path class="st24" d="M20.81 2.865l-.438-.76.072-.004c.536-.029 1.06-.018 1.573.032l.376.769a14.762 14.762 0 0 0-1.582-.037"/><path class="st23" d="M22.393 2.902l-.376-.769c.303.03.603.073.898.13l.359.756a8.86 8.86 0 0 0-.881-.117"/><path class="st22" d="M23.274 3.019l-.359-.756a6.374 6.374 0 0 1 .67.161l.333.754a4.945 4.945 0 0 0-.644-.16"/><path class="st21" d="M23.918 3.178l-.334-.754c.251.075.501.165.75.272l.306.758c-.24-.105-.48-.2-.722-.276"/><path class="st20" d="M24.64 3.454l-.306-.758c.236.101.472.217.706.347l.277.736a12.066 12.066 0 0 0-.677-.325"/><path class="st19" d="M25.317 3.78l-.277-.737a8.53 8.53 0 0 1 .455.272l.257.716a7.1 7.1 0 0 0-.24-.15l-.195-.102"/><path class="st18" d="M25.752 4.03l-.258-.715c.262.167.522.352.78.556l.205.682a10.342 10.342 0 0 0-.727-.522"/><path class="st17" d="M26.479 4.553l-.204-.682c.265.208.528.435.79.681l.035.514a15.546 15.546 0 0 0-.621-.513"/><path class="st16" d="M27.1 5.066l-.034-.514c.09.085.18.172.27.26l-.067.402a20.225 20.225 0 0 0-.169-.148"/><path id="SVGID_8_" class="st1" d="M18.105 3.343l-.518-.746a12.91 12.91 0 0 1 2.858-.496c.92-.05 1.807.018 2.662.201.721.155 1.435.441 2.14.86s1.401.969 2.09 1.65l-.068.402c-.394-.35-1.074-.927-1.757-1.332-.666-.354-1.363-.678-2.052-.826-.828-.178-1.725-.21-2.579-.195-.892.048-1.848.245-2.776.482z"/><path class="st0" d="M3.465 22.348l-.11-.49c-.118-.521-.194-1.085-.267-1.612-.062-.58-.075-1.208-.088-1.802.026-.826.068-1.691.192-2.519.14-.792.306-1.641.547-2.445.242-.804.579-1.623.905-2.381.361-.785.817-1.578 1.265-2.327.569-.862 1.185-1.74 1.84-2.486.639-.69 1.348-1.408 2.085-1.99.738-.584 1.557-1.075 2.344-1.508.073-.038.148-.075.223-.111l.45-.22a14.778 14.778 0 0 0-2.66 1.68C9.422 4.74 8.7 5.43 8.02 6.204S6.707 7.837 6.116 8.78c-.499.792-.935 1.595-1.31 2.41s-.689 1.64-.94 2.475a18.1 18.1 0 0 0-.677 7.013c.06.575.153 1.132.276 1.67"/><path id="SVGID_6_" class="st1" d="M3.455 22.306l-.1-.448c-.118-.521-.194-1.085-.267-1.612-.062-.58-.075-1.208-.088-1.802.026-.826.068-1.691.192-2.519.14-.792.306-1.641.547-2.445.242-.804.579-1.623.905-2.381.361-.785.817-1.578 1.265-2.327.569-.862 1.185-1.74 1.84-2.486.639-.69 1.348-1.408 2.085-1.99.738-.584 1.557-1.075 2.344-1.508l.176-.089c.166-.08.331-.162.497-.243l-.23.115c-.854.437-1.665.959-2.431 1.565-.767.605-1.49 1.295-2.168 2.07S6.707 7.836 6.115 8.78c-.499.792-.935 1.595-1.31 2.41s-.689 1.64-.94 2.475a18.1 18.1 0 0 0-.677 7.013c.06.56.148 1.103.266 1.628z"/><path class="st0" d="M10.608 30.208l-2.272-1.085a7.566 7.566 0 0 1-1.784-1.188c-.724-.646-1.352-1.447-1.882-2.403a12.012 12.012 0 0 1-1.19-3.113c-.13-.56-.228-1.14-.291-1.741a16.81 16.81 0 0 1-.091-1.864c.004-.762.054-1.516.15-2.261l2.272 1.085c-.096.745-.146 1.499-.15 2.26a16.81 16.81 0 0 0 .09 1.865c.065.601.162 1.181.293 1.741.262 1.12.658 2.158 1.189 3.113.53.956 1.158 1.757 1.882 2.403.54.483 1.135.879 1.784 1.188"/><path class="st11" d="M5.52 17.638l-2.272-1.086.048-.345c.08-.533.183-1.06.31-1.584l2.272 1.085a17.973 17.973 0 0 0-.358 1.93"/><path class="st27" d="M5.878 15.708l-2.272-1.085a18.207 18.207 0 0 1 .436-1.511l2.272 1.085a18.324 18.324 0 0 0-.436 1.511"/><path class="st10" d="M6.314 14.197l-2.272-1.085c.152-.455.323-.906.513-1.354l2.272 1.085c-.19.448-.36.9-.513 1.354"/><path class="st9" d="M6.827 12.843l-2.272-1.085a19.827 19.827 0 0 1 .61-1.31l2.273 1.085a20.146 20.146 0 0 0-.611 1.31"/><path class="st3" d="M7.438 11.533l-2.272-1.085c.231-.453.482-.902.752-1.348l2.272 1.085c-.27.446-.52.895-.752 1.348"/><path class="st4" d="M8.19 10.185L5.918 9.1a21.799 21.799 0 0 1 .921-1.4l2.273 1.085a21.548 21.548 0 0 0-.922 1.4"/><path class="st5" d="M9.111 8.785L6.84 7.699c.325-.454.662-.886 1.011-1.295l2.272 1.085c-.348.41-.685.841-1.01 1.296"/><path class="st6" d="M10.122 7.489L7.85 6.404l.172-.199c.347-.396.706-.77 1.076-1.122l2.272 1.085a17.143 17.143 0 0 0-1.248 1.32"/><path class="st7" d="M11.37 6.168L9.098 5.083a15.86 15.86 0 0 1 1.092-.947c.352-.278.713-.539 1.083-.781l2.273 1.085c-.37.242-.732.503-1.084.78-.374.297-.738.612-1.091.948"/><path class="st8" d="M13.546 4.44l-2.273-1.085a14.59 14.59 0 0 1 3.56-1.697l2.271 1.085a14.75 14.75 0 0 0-3.558 1.697"/><path class="st7" d="M17.104 2.743l-2.272-1.085c.16-.051.32-.1.482-.146l2.273 1.085c-.163.046-.323.095-.483.146"/><path id="SVGID_4_" class="st1" d="M10.608 30.208l-2.272-1.085a7.566 7.566 0 0 1-1.784-1.188c-.724-.646-1.352-1.447-1.882-2.403a12.012 12.012 0 0 1-1.19-3.113c-.13-.56-.228-1.14-.291-1.741a16.81 16.81 0 0 1-.091-1.864 18.05 18.05 0 0 1 .768-5.148c.251-.836.564-1.662.94-2.476s.811-1.618 1.31-2.41c.591-.943 1.227-1.8 1.906-2.575s1.401-1.464 2.168-2.07a14.756 14.756 0 0 1 5.125-2.624l2.271 1.086c-.941.269-1.839.622-2.693 1.06s-1.664.958-2.431 1.564-1.49 1.296-2.168 2.07-1.315 1.632-1.906 2.574a21.092 21.092 0 0 0-1.31 2.41 18.99 18.99 0 0 0-.94 2.476 18.068 18.068 0 0 0-.677 7.012c.064.6.161 1.181.292 1.741.262 1.12.658 2.158 1.189 3.113.53.956 1.158 1.757 1.882 2.403.54.483 1.135.879 1.784 1.188z"/><path class="st0" d="M20.519 29.296l-.44.218c-.792.403-1.63.731-2.512.983-.588.168-1.159.294-1.714.378-.556.083-1.095.125-1.618.125a8.502 8.502 0 0 1-2.947-.506 7.59 7.59 0 0 1-2.464-1.474 8.578 8.578 0 0 1-1.336-1.523l.873-.161c.387.557.814 1.076 1.285 1.496.697.621 1.542 1.071 2.37 1.418.885.324 1.882.45 2.842.487.506 0 1.05-.062 1.567-.121.539-.082 1.111-.226 1.666-.367.826-.263 1.655-.57 2.428-.953"/><path class="st11" d="M8.361 27.336l-.873.16c-.192-.276-.374-.57-.546-.879a11.5 11.5 0 0 1-.473-.954l.927-.064c.138.315.285.621.436.917.168.278.344.553.53.82"/><path class="st27" d="M7.396 25.599l-.927.064a12.174 12.174 0 0 1-.61-1.74l.929-.01c.162.586.372 1.15.608 1.686"/><path class="st10" d="M6.788 23.914l-.93.009a12.92 12.92 0 0 1-.246-1.1l.94.022a11.07 11.07 0 0 0 .236 1.069"/><path class="st9" d="M6.552 22.845l-.94-.021a14.706 14.706 0 0 1-.175-1.3l.943.074.022.231c.046.33.093.676.15 1.016"/><path class="st3" d="M6.38 21.598l-.943-.073a16.68 16.68 0 0 1-.064-1.16l.952.102c.01.378.024.762.055 1.13"/><path class="st4" d="M6.325 20.467l-.952-.102a18.061 18.061 0 0 1 .007-1.001l.953.155c-.008.17-.013.34-.019.508l.01.44"/><path class="st5" d="M6.333 19.519l-.953-.155c.015-.43.044-.857.088-1.28l.946.193c-.04.413-.064.83-.081 1.242"/><path class="st6" d="M6.414 18.277l-.946-.194c.027-.256.059-.511.097-.765l.937.215c-.036.245-.065.494-.088.744"/><path class="st7" d="M6.502 17.533l-.937-.215.003-.026c.045-.3.098-.599.158-.896l.939.264c-.057.287-.11.571-.159.848l-.004.025"/><path class="st8" d="M6.665 16.66l-.94-.264c.07-.349.151-.695.242-1.04l.925.294c-.086.336-.16.675-.227 1.01"/><path class="st15" d="M6.892 15.65l-.925-.293a18.385 18.385 0 0 1 .22-.766l.914.318a11.738 11.738 0 0 0-.21.741"/><path class="st16" d="M7.101 14.91l-.914-.319c.07-.23.147-.458.227-.686l.914.34c-.081.22-.157.443-.227.664"/><path class="st17" d="M7.328 14.245l-.914-.34c.1-.282.207-.562.321-.842l.91.366c-.11.269-.217.541-.317.816"/><path class="st18" d="M7.644 13.429l-.909-.366a19.517 19.517 0 0 1 .421-.957l.878.412-.076.164c-.105.243-.21.493-.314.747"/><path class="st19" d="M8.034 12.518l-.878-.412c.117-.247.24-.493.367-.737l.873.434c-.126.238-.248.477-.362.715"/><path class="st20" d="M8.396 11.803l-.873-.434c.183-.351.378-.7.585-1.047l.858.468c-.195.333-.388.672-.57 1.013"/><path class="st21" d="M8.966 10.79l-.858-.468a22.05 22.05 0 0 1 .526-.84L9.46 10c-.08.118-.159.237-.237.355-.086.143-.172.289-.257.435"/><path class="st22" d="M9.46 10l-.826-.518c.255-.389.518-.762.789-1.121l.799.557c-.262.352-.516.717-.762 1.082"/><path class="st23" d="M10.222 8.918l-.8-.557c.262-.346.53-.678.807-.996L11 7.94c-.266.308-.525.637-.778.977"/><path class="st24" d="M11 7.941l-.771-.576.065-.075c.235-.268.475-.526.721-.774l.736.632c-.237.24-.467.482-.688.721L11 7.941"/><path class="st25" d="M11.75 7.149l-.735-.633a16.021 16.021 0 0 1 1.557-1.381l.683.66-.107.084c-.482.38-.951.819-1.397 1.27"/><path class="st26" d="M13.255 5.796l-.683-.661a14.758 14.758 0 0 1 5.014-2.538l.519.746c-.886.28-1.787.604-2.613 1.028-.749.412-1.528.878-2.237 1.425"/><path id="SVGID_2_" class="st1" d="M20.519 29.296l-.532.265c-.765.382-1.572.694-2.42.936-.588.168-1.159.294-1.714.378-.556.083-1.095.125-1.618.125a8.502 8.502 0 0 1-2.947-.506 7.59 7.59 0 0 1-2.464-1.474c-.724-.646-1.352-1.447-1.882-2.403a12.012 12.012 0 0 1-1.189-3.113c-.131-.56-.228-1.14-.292-1.741a16.81 16.81 0 0 1-.091-1.864 18.05 18.05 0 0 1 .768-5.148 18.99 18.99 0 0 1 .94-2.476c.375-.814.811-1.618 1.31-2.41.591-.942 1.227-1.8 1.906-2.574s1.401-1.464 2.168-2.07 1.577-1.127 2.43-1.564 1.753-.791 2.695-1.06l.518.746c-.886.281-1.787.605-2.613 1.028-.786.433-1.606.925-2.344 1.508-.737.582-1.446 1.3-2.085 1.99-.655.746-1.271 1.624-1.84 2.486-.447.75-.904 1.542-1.265 2.327-.326.758-.663 1.577-.904 2.381-.242.804-.407 1.653-.548 2.445-.123.828-.166 1.693-.192 2.519.014.594.026 1.222.088 1.802.076.55.156 1.14.282 1.68.253 1.08.682 2.095 1.148 3.006.518.86 1.117 1.695 1.814 2.317.696.621 1.542 1.071 2.37 1.418.885.324 1.882.45 2.842.487.506 0 1.049-.062 1.567-.121.539-.082 1.111-.226 1.666-.367.826-.263 1.655-.57 2.428-.953z"/><path d="M18.105 3.343c.928-.237 1.884-.434 2.776-.482.854-.016 1.75.017 2.579.195.689.148 1.386.472 2.052.826.683.405 1.363.982 1.757 1.333l-2.45 3.526c-.202-.233-.716-.585-1.255-.897-.552-.355-1.104-.54-1.689-.686a4.613 4.613 0 0 0-1.823-.183c-.628.023-1.243.092-1.945.322-1.229.304-2.243.868-3.231 1.608a10.91 10.91 0 0 0-2.68 2.822c-.874 1.184-1.398 2.325-1.803 3.558-.404 1.232-.649 2.433-.616 3.807-.048 1.44.193 2.54.6 3.574.408 1.033.943 1.901 1.836 2.604.836.786 1.73 1.145 2.745 1.325 1.013.18 2.055.162 3.315-.244.815-.2 1.498-.524 2.163-.908.727-.378 1.28-.856 1.832-1.408.554-.554 1.044-1.125 1.496-1.944.44-.736.836-1.505 1.445-3.265l-6.801 1.943.02-3.76 10.558-3.017.014.635c-.036 1.06-.135 2.228-.387 3.358-.252 1.131-.675 2.309-1.128 3.419-.506 1.092-1.073 2.197-1.716 3.144-.631.879-1.354 1.792-2.138 2.54-.784.748-1.687 1.377-2.556 1.911-.924.528-1.956.923-2.984 1.25-.555.14-1.128.285-1.667.367-.517.059-1.06.122-1.566.121-.96-.037-1.957-.163-2.842-.487-.828-.346-1.674-.797-2.37-1.418-.697-.621-1.296-1.458-1.814-2.316-.466-.912-.895-1.926-1.148-3.006-.126-.54-.206-1.13-.282-1.68-.062-.581-.075-1.209-.088-1.803.026-.826.069-1.691.192-2.518.14-.793.306-1.642.548-2.445.241-.804.578-1.624.904-2.382.361-.785.818-1.577 1.265-2.327.569-.861 1.185-1.74 1.84-2.485.64-.69 1.348-1.408 2.085-1.991.738-.583 1.558-1.074 2.344-1.508.826-.424 1.727-.747 2.613-1.028z" style="fill:#ba0000"/></svg>