<svg xmlns="http://www.w3.org/2000/svg" xmlns:xlink="http://www.w3.org/1999/xlink" id="Layer_1" x="0" y="0" version="1.1" viewBox="0 0 16 16" xml:space="preserve" style="enable-background:new 0 0 16 16"><style type="text/css">.st0{fill:#f6f6f6}.st1{fill:#424242}</style><path d="M3.5,12.9c2.6,2.6,6.9,2.6,9.5,0c1.3-1.3,2-3,2-4.8c0-1.8-0.7-3.5-2-4.8C10.6,0.8,6.7,0.7,4,2.9L2.3,1.2L1.5,2	L0.9,8.3l4-0.3l0,0c0.6-0.1,3.9-0.4,3.9-0.4L6.7,5.6C7.9,4.8,9.4,5,10.4,6c0.6,0.6,0.9,1.3,0.9,2.1c0,0.8-0.3,1.5-0.9,2.1	c-1.2,1.2-3.1,1.2-4.2,0L6,9.9L5.9,9.7L5.8,9.6C4.6,8.7,3.5,8.5,3,8.4l-0.1,0L1.5,8.6l0.3,1.1C2,10.9,2.7,12,3.5,12.9z" class="st0"/><path d="M4.2,12.1c2.2,2.2,5.9,2.2,8.1,0C13.5,11,14,9.5,14,8c0-1.5-0.6-3-1.7-4.1c-2.2-2.2-5.9-2.2-8.1,0L4,4.2	L2.4,2.6L2,7.2L4.4,7c0,0,2.1-0.2,2.1-0.2L5.2,5.5l0.2-0.3c1.6-1.6,4.1-1.6,5.7,0C11.9,6,12.3,7,12.3,8c0,1-0.4,2-1.2,2.8	c-1.6,1.6-4.1,1.6-5.7,0c0,0-0.2-0.2-0.3-0.5c-1-0.8-1.9-1-2.3-1l-0.1,0C2.9,10.3,3.4,11.3,4.2,12.1z" class="st1"/></svg>