<svg xmlns="http://www.w3.org/2000/svg" xmlns:xlink="http://www.w3.org/1999/xlink" id="Layer_1" x="0" y="0" version="1.1" viewBox="0 0 448 512" xml:space="preserve" style="enable-background:new 0 0 448 512"><style type="text/css">.st0{fill:#f6f6f6}.st1{fill:#424242}</style><path d="M167.3,434.1c-11.3,0-21.8-4.4-29.7-12.4L115,399.1c-8-8-12.4-18.6-12.3-29.8c0-11.2,4.4-21.7,12.4-29.6	l83.6-83.6L115,172.4c-8-8-12.4-18.6-12.3-29.8c0-11.2,4.4-21.6,12.3-29.5c0,0,22.5-22.8,22.5-22.8C145.5,82.3,156,78,167.2,78	c11.3,0,21.8,4.4,29.7,12.4l135.9,135.9c7.9,7.9,12.4,18.4,12.4,29.7c0,11.2-4.3,21.8-12.3,29.8l-136,136	C189,429.7,178.5,434.1,167.3,434.1z" class="st0"/><path d="M320.3,273l-136,136c-9.4,9.4-24.6,9.4-33.9,0l-22.6-22.6c-9.4-9.4-9.4-24.6,0-33.9l96.4-96.4l-96.4-96.4	c-9.4-9.4-9.4-24.6,0-33.9l22.5-22.8c9.4-9.4,24.6-9.4,33.9,0l136,136C329.7,248.4,329.7,263.6,320.3,273z" class="st1"/></svg>