<?xml version="1.0" encoding="utf-8"?>
<!-- Generator: Adobe Illustrator 25.2.0, SVG Export Plug-In . SVG Version: 6.00 Build 0)  -->
<svg version="1.1" id="Layer_1" xmlns="http://www.w3.org/2000/svg" xmlns:xlink="http://www.w3.org/1999/xlink" x="0px" y="0px"
	 viewBox="0 0 512 512" style="enable-background:new 0 0 512 512;" xml:space="preserve">
<style type="text/css">
	.st0{fill:#C5C5C5;}
	.st1{fill:#2D2D30;}
</style>
<path class="st0" d="M134.3,495.8c-7.5,0-14.4-4-18.2-10.4l-50.2-85.6l-19.8,8.5c-2.6,1.1-5.4,1.7-8.3,1.7c-8.5,0-16.1-5-19.4-12.8
	c-2.2-5.2-2.3-10.9-0.2-16.2c2.1-5.2,6.1-9.3,11.3-11.6l21.3-9.1v-55.4c0-1.3,0.1-2.7,0.4-3.9l-5.1,2.2c-2.6,1.1-5.4,1.7-8.3,1.7
	c-8.5,0-16.1-5-19.4-12.8c-4.6-10.7,0.4-23.2,11.1-27.7l21.3-9.1v-55.4c0-1.3,0.1-2.7,0.4-3.9l-5.1,2.2c-2.6,1.1-5.4,1.7-8.3,1.7
	c-8.5,0-16.1-5-19.4-12.8c-4.6-10.7,0.4-23.2,11.1-27.7l21.3-9.1V37.3c0-11.6,9.5-21.1,21.1-21.1h124.7c11.6,0,21.1,9.5,21.1,21.1
	v41.2l7.9-3.4c2.6-1.1,5.4-1.7,8.3-1.7c8.5,0,16.1,5,19.4,12.8c2.2,5.2,2.3,10.9,0.2,16.2c-2.1,5.2-6.1,9.3-11.3,11.6l-43.9,18.8
	c10.8,0.9,19.4,10,19.4,21.1v29.9l7.9-3.4c2.6-1.1,5.4-1.7,8.3-1.7c8.5,0,16.1,5,19.4,12.8c2.2,5.2,2.3,10.9,0.2,16.2
	c-2.1,5.2-6.1,9.3-11.3,11.6l-39.2,16.8c8.5,2.7,14.6,10.7,14.6,20.1v32.8l7.9-3.4c2.6-1.1,5.4-1.7,8.3-1.7c8.5,0,16.1,5,19.4,12.8
	c2.2,5.2,2.3,10.9,0.2,16.2c-2.1,5.2-6.1,9.3-11.3,11.6l-24.5,10.5v33.6c0,3.8-1,7.5-2.9,10.7l-62.4,106.3
	C148.8,491.8,141.8,495.8,134.3,495.8z M134.3,432.9l41.2-70.3v-9.8L105,383L134.3,432.9z M83.4,287.1c5.8,3.8,9.6,10.3,9.6,17.7
	v37.3l82.5-35.3V256c0-3.3,0.8-6.4,2.1-9.2L83.4,287.1z M83.4,182c5.8,3.8,9.6,10.3,9.6,17.7V237l82.5-35.3v-47.9
	c0-5,1.8-9.6,4.7-13.3L83.4,182z M93.1,131.9l82.5-35.3V58.5H93.1V131.9z"/>
<path class="st1" d="M37.8,188.9c1.4,0,2.7-0.3,4.1-0.8l158.8-68c0,0,0.1,0,0.1-0.1l37.3-16c5.2-2.2,7.7-8.3,5.4-13.6
	c-2.2-5.2-8.3-7.7-13.6-5.4l-23,9.8V37.3c0-5.7-4.6-10.3-10.3-10.3H71.9c-5.7,0-10.3,4.6-10.3,10.3v119.8L33.7,169
	c-5.2,2.2-7.7,8.3-5.4,13.6C30,186.5,33.8,188.9,37.8,188.9z M82.3,47.7h104.1v56L82.3,148.3V47.7z M230,190.2l-23,9.8v-46.2
	c0-5.7-4.6-10.3-10.3-10.3s-10.3,4.6-10.3,10.3v55.1L82.3,253.4v-53.7c0-5.7-4.6-10.3-10.3-10.3c-5.7,0-10.3,4.6-10.3,10.3v62.6
	l-27.9,11.9c-5.2,2.2-7.7,8.3-5.4,13.6c1.7,3.9,5.5,6.3,9.5,6.3c1.4,0,2.7-0.3,4.1-0.8l34-14.6c0,0,0.1,0,0.1-0.1l124.6-53.3
	c0,0,0.1,0,0.1-0.1l37.3-16c5.2-2.2,7.7-8.3,5.4-13.6C241.3,190.4,235.2,188,230,190.2z M230,295.4l-23,9.8V256
	c0-5.7-4.6-10.3-10.3-10.3s-10.3,4.6-10.3,10.3v58L82.3,358.6v-53.7c0-5.7-4.6-10.3-10.3-10.3c-5.7,0-10.3,4.6-10.3,10.3v62.6
	l-27.9,11.9c-5.2,2.2-7.7,8.3-5.4,13.6c1.7,3.9,5.5,6.3,9.5,6.3c1.4,0,2.7-0.3,4.1-0.8l28.5-12.2l55,93.8c1.9,3.2,5.2,5.1,8.9,5.1
	c3.7,0,7.1-1.9,8.9-5.1l62.4-106.3c0.9-1.6,1.4-3.4,1.4-5.2v-40.7l31.1-13.3c5.2-2.2,7.7-8.3,5.4-13.6
	C241.3,295.6,235.2,293.1,230,295.4z M186.3,365.6l-52,88.7l-44.8-76.3l96.8-41.4V365.6z"/>
<path class="st0" d="M347.9,301c-38.8,0-75.2-15.1-102.7-42.5c-27.4-27.5-42.5-63.9-42.5-102.7s15.1-75.2,42.5-102.7
	c27.5-27.4,63.9-42.5,102.7-42.5s75.2,15.1,102.7,42.5C477.9,80.6,493,117,493,155.9c0,38.8-15.1,75.2-42.5,102.7
	C423.1,286,386.6,301,347.9,301z M347.9,49.8c-58.5,0-106.1,47.6-106.1,106.1s47.6,106.1,106.1,106.1s106.1-47.6,106.1-106.1
	S406.4,49.8,347.9,49.8z M386.5,216.8c-2.7,0-5.3-0.8-7.5-2.4c0,0-47.7-34.6-47.7-34.7c-3.3-2.4-5.2-6.3-5.2-10.3V77.3
	c0-7,5.7-12.8,12.8-12.8h17.9c7,0,12.8,5.7,12.8,12.8v76.4l35,25.4c5.7,4.1,6.9,12.1,2.8,17.9l-10.5,14.6
	C394.4,214.8,390.6,216.8,386.5,216.8z"/>
<path class="st1" d="M347.9,16.7C271,16.7,208.7,79,208.7,155.9S271,295,347.9,295S487,232.7,487,155.9S424.7,16.7,347.9,16.7z
	 M347.9,268c-62,0-112.2-50.2-112.2-112.2S285.9,43.7,347.9,43.7S460,93.9,460,155.9S409.8,268,347.9,268z M382.5,209.5l-47.6-34.6
	c-1.7-1.3-2.7-3.3-2.7-5.4V77.3c0-3.7,3-6.7,6.7-6.7h17.9c3.7,0,6.7,3,6.7,6.7v79.5l37.5,27.3c3,2.2,3.7,6.4,1.5,9.4L392,208
	C389.7,211,385.5,211.6,382.5,209.5L382.5,209.5z"/>
</svg>
