<svg xmlns="http://www.w3.org/2000/svg" xmlns:xlink="http://www.w3.org/1999/xlink" id="Layer_1" x="0" y="0" version="1.1" viewBox="0 0 512 512" xml:space="preserve" style="enable-background:new 0 0 512 512"><style type="text/css">.st0{fill:#c5c5c5}.st1{fill:#2d2d30}</style><path d="M119.4,485.5c-6.9,0-13.3-3.7-16.8-9.6l-46.3-78.9l-18.2,7.8c-2.4,1-5,1.6-7.7,1.6c-7.8,0-14.8-4.6-17.9-11.8	c-2-4.8-2.1-10.1-0.2-14.9c1.9-4.8,5.6-8.6,10.4-10.7l19.7-8.4v-51.1c0-1.2,0.1-2.4,0.3-3.6l-4.7,2c-2.4,1-5,1.6-7.7,1.6	c-7.8,0-14.8-4.6-17.9-11.8c-4.2-9.9,0.4-21.3,10.2-25.6l19.7-8.4v-51.1c0-1.2,0.1-2.4,0.3-3.6l-4.7,2c-2.4,1-5,1.6-7.7,1.6	c-7.8,0-14.8-4.6-17.9-11.8c-4.2-9.9,0.4-21.3,10.2-25.6l19.7-8.4V62.9c0-10.7,8.7-19.5,19.5-19.5h115c10.7,0,19.5,8.7,19.5,19.5	v37.9l7.3-3.1c2.4-1,5-1.6,7.7-1.6c7.8,0,14.8,4.6,17.9,11.8c2,4.8,2.1,10.1,0.2,14.9c-1.9,4.8-5.6,8.6-10.4,10.7l-40.5,17.3	c10,0.8,17.9,9.2,17.9,19.4v27.5l7.3-3.1c2.4-1,5-1.6,7.7-1.6c7.8,0,14.8,4.6,17.9,11.8c2,4.8,2.1,10.1,0.2,14.9	c-1.9,4.8-5.6,8.6-10.4,10.7L182.9,246c7.8,2.5,13.5,9.9,13.5,18.5v30.3l7.3-3.1c2.4-1,5-1.6,7.7-1.6c7.8,0,14.8,4.6,17.9,11.8	c2,4.8,2.1,10.1,0.2,14.9c-1.9,4.8-5.6,8.6-10.4,10.7l-22.6,9.7v31c0,3.5-0.9,6.9-2.7,9.9l-57.5,98	C132.7,481.9,126.3,485.5,119.4,485.5z M119.4,427.6l38-64.8v-9l-65,27.8L119.4,427.6z M72.5,293.2c5.3,3.5,8.9,9.5,8.9,16.3V344	l76-32.5v-46.9c0-3,0.7-5.9,1.9-8.5L72.5,293.2z M72.5,196.3c5.3,3.5,8.9,9.5,8.9,16.3V247l76-32.5v-44.2c0-4.6,1.6-8.9,4.3-12.2	L72.5,196.3z M81.4,150.1l76-32.5V82.4h-76V150.1z" class="st0"/><path d="M30.5,202.6c1.2,0,2.5-0.2,3.7-0.8l146.4-62.6c0,0,0.1,0,0.1,0l34.4-14.7c4.8-2.1,7.1-7.7,5-12.5	c-2.1-4.8-7.7-7.1-12.5-5l-21.2,9.1v-53c0-5.3-4.3-9.5-9.5-9.5h-115c-5.3,0-9.5,4.3-9.5,9.5v110.4l-25.7,11c-4.8,2.1-7.1,7.7-5,12.5	C23.3,200.5,26.8,202.6,30.5,202.6z M71.5,72.5h95.9v51.7l-95.9,41.1V72.5z M207.6,203.9l-21.2,9.1v-42.6c0-5.3-4.3-9.5-9.5-9.5	c-5.3,0-9.5,4.3-9.5,9.5v50.8l-95.9,41.1v-49.5c0-5.3-4.3-9.5-9.5-9.5s-9.5,4.3-9.5,9.5v57.7l-25.7,11c-4.8,2.1-7.1,7.7-5,12.5	c1.5,3.6,5.1,5.8,8.8,5.8c1.2,0,2.5-0.2,3.7-0.8l31.4-13.4c0,0,0.1,0,0.1,0l114.9-49.2c0,0,0.1,0,0.1,0l34.4-14.7	c4.8-2.1,7.1-7.7,5-12.5C218,204,212.4,201.8,207.6,203.9z M207.6,300.8l-21.2,9.1v-45.3c0-5.3-4.3-9.5-9.5-9.5	c-5.3,0-9.5,4.3-9.5,9.5V318l-95.9,41.1v-49.5c0-5.3-4.3-9.5-9.5-9.5s-9.5,4.3-9.5,9.5v57.7l-25.7,11c-4.8,2.1-7.1,7.7-5,12.5	c1.5,3.6,5.1,5.8,8.8,5.8c1.2,0,2.5-0.2,3.7-0.8l26.3-11.3l50.7,86.4c1.7,2.9,4.8,4.7,8.2,4.7c3.4,0,6.5-1.8,8.2-4.7l57.5-98	c0.9-1.5,1.3-3.1,1.3-4.8v-37.5l28.6-12.3c4.8-2.1,7.1-7.7,5-12.5C218,301,212.4,298.7,207.6,300.8z M167.4,365.5l-48,81.7	l-41.3-70.3l89.2-38.2V365.5z" class="st1"/><path d="M315.2,370.4c-5.4,0-10.4-2.9-13.1-7.5l-36-61.4l-14.2,6.1c-1.9,0.8-3.9,1.2-6,1.2c-6.1,0-11.5-3.6-13.9-9.2	c-1.6-3.7-1.6-7.8-0.1-11.6c1.5-3.8,4.4-6.7,8.1-8.3l15.3-6.5v-39.8c0-1,0.1-1.9,0.3-2.8l-3.6,1.6c-1.9,0.8-3.9,1.2-6,1.2	c-6.1,0-11.5-3.6-13.9-9.2c-3.3-7.7,0.3-16.6,8-19.9l15.3-6.5v-39.8c0-1,0.1-1.9,0.3-2.8l-3.6,1.6c-1.9,0.8-3.9,1.2-6,1.2	c-6.1,0-11.5-3.6-13.9-9.2c-3.3-7.7,0.3-16.6,8-19.9l15.3-6.5V41.6c0-8.4,6.8-15.2,15.2-15.2h89.5c8.4,0,15.2,6.8,15.2,15.2v29.5	l5.7-2.4c1.9-0.8,3.9-1.2,6-1.2c6.1,0,11.5,3.6,13.9,9.2c1.6,3.7,1.6,7.8,0.1,11.6c-1.5,3.8-4.4,6.7-8.1,8.3L361.2,110	c7.8,0.6,13.9,7.2,13.9,15.1v21.4l5.7-2.4c1.9-0.8,3.9-1.2,6-1.2c6.1,0,11.5,3.6,13.9,9.2c1.6,3.7,1.6,7.8,0.1,11.6	c-1.5,3.8-4.4,6.7-8.1,8.3l-28.1,12c6.1,2,10.5,7.7,10.5,14.4V222l5.7-2.4c1.9-0.8,3.9-1.2,6-1.2c6.1,0,11.5,3.6,13.9,9.2	c1.6,3.7,1.6,7.8,0.1,11.6c-1.5,3.8-4.4,6.7-8.1,8.3l-17.6,7.5V279c0,2.7-0.7,5.3-2.1,7.7l-44.7,76.2	C325.6,367.5,320.5,370.4,315.2,370.4z M315.2,325.3l29.6-50.4v-7l-50.6,21.6L315.2,325.3z M278.7,220.8c4.2,2.7,6.9,7.4,6.9,12.7	v26.8l59.1-25.3v-36.5c0-2.4,0.5-4.6,1.5-6.6L278.7,220.8z M278.7,145.3c4.2,2.7,6.9,7.4,6.9,12.7v26.8l59.1-25.3v-34.4	c0-3.6,1.3-6.9,3.4-9.5L278.7,145.3z M285.6,109.4l59.1-25.3V56.8h-59.1V109.4z" class="st0"/><path d="M246,150.3c1,0,2-0.2,2.9-0.6l113.9-48.7c0,0,0.1,0,0.1,0l26.8-11.5c3.8-1.6,5.5-6,3.9-9.7	c-1.6-3.8-6-5.5-9.7-3.9l-16.5,7V41.6c0-4.1-3.3-7.4-7.4-7.4h-89.5c-4.1,0-7.4,3.3-7.4,7.4v85.9l-20,8.6c-3.8,1.6-5.5,6-3.9,9.7	C240.4,148.6,243.1,150.3,246,150.3z M277.9,49h74.6v40.2l-74.6,31.9V49z M383.8,151.2l-16.5,7v-33.2c0-4.1-3.3-7.4-7.4-7.4	c-4.1,0-7.4,3.3-7.4,7.4v39.5l-74.6,31.9v-38.5c0-4.1-3.3-7.4-7.4-7.4s-7.4,3.3-7.4,7.4v44.9l-20,8.6c-3.8,1.6-5.5,6-3.9,9.7	c1.2,2.8,3.9,4.5,6.8,4.5c1,0,2-0.2,2.9-0.6l24.4-10.5c0,0,0.1,0,0.1,0l89.4-38.3c0,0,0.1,0,0.1,0l26.8-11.5c3.8-1.6,5.5-6,3.9-9.7	C391.9,151.4,387.6,149.6,383.8,151.2z M383.8,226.7l-16.5,7v-35.3c0-4.1-3.3-7.4-7.4-7.4c-4.1,0-7.4,3.3-7.4,7.4v41.6L277.9,272	v-38.5c0-4.1-3.3-7.4-7.4-7.4s-7.4,3.3-7.4,7.4v44.9l-20,8.6c-3.8,1.6-5.5,6-3.9,9.7c1.2,2.8,3.9,4.5,6.8,4.5c1,0,2-0.2,2.9-0.6	l20.5-8.8l39.5,67.2c1.3,2.3,3.8,3.7,6.4,3.7c2.6,0,5.1-1.4,6.4-3.7l44.7-76.2c0.7-1.1,1-2.4,1-3.7v-29.2l22.3-9.5	c3.8-1.6,5.5-6,3.9-9.7C391.9,226.8,387.6,225.1,383.8,226.7z M352.5,277l-37.3,63.6l-32.1-54.7l69.4-29.7V277z" class="st1"/><path d="M450.2,228c-3.1,0-6.1-1.7-7.7-4.4l-21.1-36l-8.3,3.6c-1.1,0.5-2.3,0.7-3.5,0.7c-3.6,0-6.8-2.1-8.2-5.4	c-0.9-2.2-1-4.6-0.1-6.8c0.9-2.2,2.6-3.9,4.7-4.9l9-3.8v-23.3c0-0.6,0.1-1.1,0.2-1.6l-2.1,0.9c-1.1,0.5-2.3,0.7-3.5,0.7	c-3.6,0-6.8-2.1-8.2-5.4c-1.9-4.5,0.2-9.7,4.7-11.7l9-3.8v-23.3c0-0.6,0.1-1.1,0.2-1.6l-2.1,0.9c-1.1,0.5-2.3,0.7-3.5,0.7	c-3.6,0-6.8-2.1-8.2-5.4c-1.9-4.5,0.2-9.7,4.7-11.7l9-3.8V35.3c0-4.9,4-8.9,8.9-8.9h52.4c4.9,0,8.9,4,8.9,8.9v17.3l3.3-1.4	c1.1-0.5,2.3-0.7,3.5-0.7c3.6,0,6.8,2.1,8.2,5.4c0.9,2.2,1,4.6,0.1,6.8c-0.9,2.2-2.6,3.9-4.7,4.9l-18.5,7.9c4.6,0.4,8.1,4.2,8.1,8.8	v12.5l3.3-1.4c1.1-0.5,2.3-0.7,3.5-0.7c3.6,0,6.8,2.1,8.2,5.4c0.9,2.2,1,4.6,0.1,6.8c-0.9,2.2-2.6,3.9-4.7,4.9l-16.5,7	c3.6,1.2,6.2,4.5,6.2,8.5V141l3.3-1.4c1.1-0.5,2.3-0.7,3.5-0.7c3.6,0,6.8,2.1,8.2,5.4c0.9,2.2,1,4.6,0.1,6.8	c-0.9,2.2-2.6,3.9-4.7,4.9l-10.3,4.4v14.1c0,1.6-0.4,3.1-1.2,4.5l-26.2,44.7C456.3,226.4,453.4,228,450.2,228z M450.2,201.6	l17.3-29.5V168l-29.6,12.7L450.2,201.6z M428.8,140.3c2.4,1.6,4.1,4.3,4.1,7.5v15.7l34.7-14.8v-21.4c0-1.4,0.3-2.7,0.9-3.9	L428.8,140.3z M428.8,96.1c2.4,1.6,4.1,4.3,4.1,7.5v15.7l34.7-14.8V84.3c0-2.1,0.7-4.1,2-5.6L428.8,96.1z M432.9,75.1l34.7-14.8v-16	h-34.7V75.1z" class="st0"/><path d="M409.7,99c0.6,0,1.1-0.1,1.7-0.4l66.7-28.6c0,0,0,0,0,0l15.7-6.7c2.2-0.9,3.2-3.5,2.3-5.7	c-0.9-2.2-3.5-3.2-5.7-2.3l-9.6,4.1V35.3c0-2.4-1.9-4.3-4.3-4.3H424c-2.4,0-4.3,1.9-4.3,4.3v50.3l-11.7,5c-2.2,0.9-3.2,3.5-2.3,5.7	C406.4,98,408,99,409.7,99z M428.3,39.7h43.7v23.6L428.3,82V39.7z M490.4,99.6l-9.6,4.1V84.3c0-2.4-1.9-4.3-4.3-4.3	c-2.4,0-4.3,1.9-4.3,4.3v23.1l-43.7,18.7v-22.6c0-2.4-1.9-4.3-4.3-4.3c-2.4,0-4.3,1.9-4.3,4.3v26.3l-11.7,5	c-2.2,0.9-3.2,3.5-2.3,5.7c0.7,1.6,2.3,2.6,4,2.6c0.6,0,1.1-0.1,1.7-0.4l14.3-6.1c0,0,0,0,0.1,0l52.4-22.4c0,0,0,0,0,0l15.7-6.7	c2.2-0.9,3.2-3.5,2.3-5.7C495.2,99.7,492.6,98.7,490.4,99.6z M490.4,143.8l-9.6,4.1v-20.7c0-2.4-1.9-4.3-4.3-4.3	c-2.4,0-4.3,1.9-4.3,4.3v24.4l-43.7,18.7v-22.6c0-2.4-1.9-4.3-4.3-4.3c-2.4,0-4.3,1.9-4.3,4.3v26.3l-11.7,5	c-2.2,0.9-3.2,3.5-2.3,5.7c0.7,1.6,2.3,2.6,4,2.6c0.6,0,1.1-0.1,1.7-0.4l12-5.1l23.1,39.4c0.8,1.3,2.2,2.1,3.7,2.1	c1.5,0,3-0.8,3.7-2.1l26.2-44.7c0.4-0.7,0.6-1.4,0.6-2.2v-17.1l13.1-5.6c2.2-0.9,3.2-3.5,2.3-5.7	C495.2,143.9,492.6,142.9,490.4,143.8z M472.1,173.3l-21.9,37.3l-18.8-32.1l40.7-17.4V173.3z" class="st1"/></svg>