<svg xmlns="http://www.w3.org/2000/svg" xmlns:xlink="http://www.w3.org/1999/xlink" id="Layer_1" x="0" y="0" version="1.1" viewBox="0 0 512 512" xml:space="preserve" style="enable-background:new 0 0 512 512"><style type="text/css">.st0{fill:#c5c5c5}.st1{fill:#2d2d30}</style><path d="M256,501.3c-65.5,0-127.1-25.5-173.5-71.8C36.2,383.1,10.7,321.5,10.7,256c0-65.5,25.5-127.1,71.8-173.5	C128.9,36.2,190.5,10.7,256,10.7c65.5,0,127.1,25.5,173.5,71.8c46.3,46.3,71.8,107.9,71.8,173.5c0,65.5-25.5,127.1-71.8,173.5	S321.5,501.3,256,501.3z M256,76.7c-98.9,0-179.3,80.4-179.3,179.3S157.1,435.3,256,435.3S435.3,354.9,435.3,256	S354.9,76.7,256,76.7z M321.3,359c-4.6,0-9-1.4-12.7-4.1c0,0-80.6-58.5-80.6-58.6c-5.5-4.1-8.8-10.6-8.8-17.4V123.3	c0-11.9,9.7-21.6,21.6-21.6h30.3c11.9,0,21.6,9.7,21.6,21.6v129.1l59.1,43c9.6,6.9,11.7,20.5,4.7,30.2l-17.8,24.6	C334.7,355.7,328.2,359,321.3,359z" class="st0"/><path d="M256,20.9C126.1,20.9,20.9,126.1,20.9,256S126.1,491.1,256,491.1S491.1,385.9,491.1,256S385.9,20.9,256,20.9z M256,445.6c-104.7,0-189.6-84.8-189.6-189.6S151.3,66.4,256,66.4S445.6,151.3,445.6,256S360.7,445.6,256,445.6z M314.6,346.6	l-80.5-58.5c-2.9-2.2-4.6-5.6-4.6-9.2V123.3c0-6.3,5.1-11.4,11.4-11.4h30.3c6.3,0,11.4,5.1,11.4,11.4v134.3l63.3,46.1	c5.1,3.7,6.2,10.8,2.5,15.9l-17.8,24.5C326.8,349.2,319.7,350.3,314.6,346.6L314.6,346.6z" class="st1"/></svg>