<?xml version="1.0" encoding="utf-8"?>
<!-- Generator: Adobe Illustrator 25.2.0, SVG Export Plug-In . SVG Version: 6.00 Build 0)  -->
<svg version="1.1" id="Layer_1" xmlns="http://www.w3.org/2000/svg" xmlns:xlink="http://www.w3.org/1999/xlink" x="0px" y="0px"
	 viewBox="0 0 512 512" style="enable-background:new 0 0 512 512;" xml:space="preserve">
<style type="text/css">
	.st0{fill:#C5C5C5;}
	.st1{fill:#2D2D30;}
</style>
<g>
	<path class="st0" d="M144.2,424.3c-10.3,0-18.1-7.2-19.1-17.6l-7.8-51.1H73.7L66.2,407c-1.6,10.6-9.3,17.3-19.5,17.3H28.3
		c-5.6,0-10.5-2.2-13.9-6.1c-3.7-4.2-5.2-10-4.3-16.3c0,0,45.5-296,45.5-296c1.6-11.4,9.2-18.2,20.4-18.2h39.3
		c11.1,0,18.4,6.6,20,18.2c0,0,45.5,296,45.5,296.1c0.9,6.4-0.7,12.2-4.3,16.3c-3.4,3.9-8.3,6-14,6H144.2z M109.8,305l-13.2-90.4
		c0-0.1,0-0.2,0-0.3l-1.2-10l-1.2,10c0,0.1,0,0.2,0,0.3L80.6,305H109.8z"/>
	<path class="st1" d="M135,405.5l-9.2-59.9H65l-8.7,59.9c-0.9,5.7-4.4,8.7-9.6,8.7H28.3c-6.1,0-9.2-4.8-8.3-10.9l45.5-296
		c0.9-6.6,4.4-9.6,10.5-9.6h39.3c6.1,0,9.2,3.1,10.1,9.6l45.5,296c0.9,6.6-2.2,10.9-8.3,10.9h-18.4
		C139.4,414.3,135.4,411.2,135,405.5z M69,315h52.5l-14.9-101.9l-10.1-84.8h-2.2l-10.1,84.8L69,315z"/>
	<path class="st0" d="M202.7,424.3c-11.6,0-19.6-8.1-19.6-19.6V106.9c0-11.5,7.9-19.2,19.6-19.2h47.7c30.6,0,51.9,7,65.3,21.3
		c12.1,12.9,17.7,31.6,17.7,58.7v19.2c0,23.8-3.5,51.5-27.2,67.2c23.7,16,27.2,43.5,27.2,67v22.7c0,27.3-5.6,46.1-17.7,59.1
		c-13.4,14.4-34.7,21.3-65.3,21.3H202.7z M250.4,373.6c20.6,0,26.3-6.4,26.3-29.8v-35c0-23.4-5.6-29.8-26.3-29.8h-10.5v94.5H250.4z
		 M250.4,228.5c20.9,0,26.3-6,26.3-29.3v-31.5c0-23-5.6-29.3-26.3-29.3h-10.5v90.1H250.4z"/>
	<path class="st1" d="M202.7,414.3c-6.1,0-9.6-3.5-9.6-9.6V106.9c0-6.1,3.5-9.2,9.6-9.2h47.7c57.3,0,73,24.9,73,69.9v19.2
		c0,34.5-8.7,57.3-38.5,66v2.2c29.7,9.2,38.5,31.9,38.5,66v22.7c0,45.5-15.7,70.4-73,70.4H202.7z M250.4,238.5
		c29.7,0,36.3-14.4,36.3-39.3v-31.5c0-24.5-6.6-39.3-36.3-39.3h-20.5v110.2H250.4z M250.4,383.7c29.7,0,36.3-14.9,36.3-39.8v-35
		c0-24.5-6.6-39.8-36.3-39.8h-20.5v114.5H250.4z"/>
	<path class="st0" d="M424.8,426.5c-28.3,0-48.1-6.4-60.6-19.7c-11.4-12.1-16.7-29.4-16.7-54.6V159.8c0-25.2,5.3-42.5,16.7-54.6
		c12.5-13.3,32.4-19.7,60.6-19.7s48.1,6.4,60.6,19.7c11.4,12.1,16.7,29.4,16.7,54.6V211c0,11.6-8.1,19.6-19.6,19.6H465
		c-11.7,0-19.6-7.9-19.6-19.6v-51.1c0-18.8-4.2-23.6-20.6-23.6s-20.6,4.9-20.6,23.6v192.4c0,18.8,4.2,23.6,20.6,23.6
		s20.6-4.9,20.6-23.6v-51.6c0-11.5,7.9-19.2,19.6-19.2h17.5c11.7,0,19.6,7.7,19.6,19.2v51.6c0,25.2-5.3,42.5-16.7,54.6
		C472.9,420,453.1,426.5,424.8,426.5z"/>
	<path class="st1" d="M492.1,211c0,6.1-3.5,9.6-9.6,9.6H465c-6.1,0-9.6-3.5-9.6-9.6v-51.1c0-21-5.7-33.7-30.6-33.7
		c-24.9,0-30.6,12.7-30.6,33.7v192.4c0,21,5.7,33.7,30.6,33.7c24.9,0,30.6-12.7,30.6-33.7v-51.6c0-6.1,3.5-9.2,9.6-9.2h17.5
		c6.1,0,9.6,3.1,9.6,9.2v51.6c0,41.5-14.9,64.3-67.3,64.3c-52.5,0-67.3-22.7-67.3-64.3V159.8c0-41.5,14.9-64.3,67.3-64.3
		c52.5,0,67.3,22.7,67.3,64.3V211z"/>
</g>
</svg>
