<?xml version="1.0" encoding="utf-8"?>
<!-- Generator: Adobe Illustrator 24.1.1, SVG Export Plug-In . SVG Version: 6.00 Build 0)  -->
<svg version="1.1" id="Layer_1" xmlns="http://www.w3.org/2000/svg" xmlns:xlink="http://www.w3.org/1999/xlink" x="0px" y="0px"
	 viewBox="0 0 512 512" style="enable-background:new 0 0 512 512;" xml:space="preserve">
<style type="text/css">
	.st0{fill:#F6F6F6;}
	.st1{fill:#424242;}
</style>
<path class="st0" d="M46.2,477.5c-20.4,0-37.1-16.6-37.1-37.1V71.6c0-20.4,16.6-37.1,37.1-37.1h159c5,0,9.5,2,12.7,5.3
	c3.3-3.3,7.8-5.3,12.7-5.3h4.8c9.9,0,19.3,3.8,26.2,10.8l77.8,77.9c6.9,6.9,10.8,16.4,10.8,26.2v4.8c0,5-2,9.5-5.3,12.7
	c3.3,3.3,5.3,7.8,5.3,12.7v83.7h14.8v-33.7c0-17,13.8-30.8,30.8-30.8c8.1,0,15.8,3.2,21.7,9l76.1,76.7c5.9,5.9,9.2,13.8,9.2,22.2
	c0,8.4-3.3,16.3-9.2,22.3l-76,76.7c-5.9,5.9-13.6,9.1-21.7,9.1l0,0c-17,0-30.8-13.8-30.8-30.8v-33.8h-14.8v90.1
	c0,20.4-16.6,37.1-37.1,37.1H46.2z"/>
<path class="st1" d="M332.3,149.4c0-5-2-9.9-5.6-13.4l-77.8-77.9c-3.6-3.6-8.4-5.6-13.5-5.6h-4.8v101.7h101.7V149.4z M481,297.3
	l-76.1-76.6c-8-8-21.8-2.4-21.8,9v51.7h-50.9v50.9h50.9v51.8c0,11.4,13.8,17,21.8,9l76.1-76.7C486.2,311.2,486.2,302.6,481,297.3z
	 M179.7,319.6v-25.4c0-7,5.7-12.7,12.7-12.7h139.9V179.7H224.2c-10.5,0-19.1-8.6-19.1-19.1V52.5h-159c-10.6,0-19.1,8.5-19.1,19.1
	v368.8c0,10.6,8.5,19.1,19.1,19.1h267.1c10.6,0,19.1-8.5,19.1-19.1V332.3H192.4C185.4,332.3,179.7,326.6,179.7,319.6z"/>
</svg>
