<svg xmlns="http://www.w3.org/2000/svg" xmlns:xlink="http://www.w3.org/1999/xlink" id="Layer_1" x="0" y="0" version="1.1" viewBox="0 0 512 512" xml:space="preserve" style="enable-background:new 0 0 512 512"><style type="text/css">.st0{fill:#f6f6f6}.st1{fill:#424242}</style><path d="M110.6,495.5c-21.4,0-38.8-17.4-38.8-38.8V55.3c0-21.4,17.4-38.8,38.8-38.8h173c5.6,0,10.5,2.5,13.8,6.5	c3.3-4,8.3-6.5,13.8-6.5h5.3c10.4,0,20.1,4,27.4,11.3l84.7,84.8c7.2,7.2,11.3,17.2,11.3,27.3v5.3c0,5.6-2.5,10.5-6.5,13.8	c4,3.3,6.5,8.3,6.5,13.8v283.8c0,21.4-17.4,38.8-38.8,38.8H110.6z" class="st0"/><path d="M283.7,152.2V34.5h-173c-11.5,0-20.8,9.3-20.8,20.8v401.5c0,11.5,9.3,20.8,20.8,20.8h290.7	c11.5,0,20.8-9.3,20.8-20.8V172.9H304.5C293,172.9,283.7,163.6,283.7,152.2z M171.9,311.4h56.4v-69.2c0-7.6,6.2-13.8,13.8-13.8h27.7	c7.6,0,13.8,6.2,13.8,13.8v69.2h56.4c12.4,0,18.5,15,9.8,23.7l-83.4,82.8c-5.8,5.7-15,5.7-20.8,0L162.2,335	C153.4,326.3,159.6,311.4,171.9,311.4z M416.1,125.4l-84.7-84.8c-3.9-3.9-9.2-6.1-14.7-6.1h-5.3v110.7h110.7V140	C422.1,134.5,420,129.2,416.1,125.4z" class="st1"/></svg>