<?xml version="1.0" encoding="utf-8"?>
<!-- Generator: Adobe Illustrator 24.3.0, SVG Export Plug-In . SVG Version: 6.00 Build 0)  -->
<svg version="1.1" id="Layer_1" xmlns="http://www.w3.org/2000/svg" xmlns:xlink="http://www.w3.org/1999/xlink" x="0px" y="0px"
	 viewBox="0 0 512 512" style="enable-background:new 0 0 512 512;" xml:space="preserve">
<style type="text/css">
	.st0{fill:#C5C5C5;}
	.st1{fill:#2D2D30;}
</style>
<path class="st0" d="M10.8,428.9V84.1c0-6.3,5.2-11.5,11.5-11.5h38.3c6.3,0,11.5,5.2,11.5,11.5v145.5L236.4,79.7
	c19.7-16.4,50.3-2.7,50.3,23.6v126.3L450.9,79.7c19.7-16.4,50.3-2.7,50.3,23.6v306.5c0,26.2-30.6,39.9-50.3,23.6L286.6,284.6v125.2
	c0,26.2-30.6,39.9-50.3,23.6L72.1,284.6v144.3c0,6.3-5.2,11.5-11.5,11.5H22.3C16,440.4,10.8,435.2,10.8,428.9z"/>
<path class="st1" d="M470.3,426.9c-2.7,0-6.7-0.7-10.6-3.8l-164-148.5c-2.5-2.3-5.8-3.5-9.1-3.5c-1.8,0-3.7,0.4-5.5,1.2
	c-4.9,2.2-8,7-8,12.3v125.2c0,10.7-8.8,17.2-17.3,17.2c-2.7,0-6.7-0.7-10.6-3.8l-164-148.5c-2.5-2.3-5.8-3.5-9.1-3.5
	c-1.9,0-3.7,0.4-5.5,1.2c-4.9,2.2-8,7-8,12.3v142.3H24.3V86.1h34.3v143.5c0,5.3,3.2,10.2,8.1,12.4c1.8,0.8,3.6,1.1,5.4,1.1
	c3.3,0,6.6-1.2,9.1-3.5l164-149.6c3.9-3.1,7.9-3.8,10.6-3.8c8.5,0,17.3,6.4,17.3,17.2v126.3c0,5.3,3.2,10.2,8,12.4
	c1.8,0.8,3.6,1.1,5.4,1.1c3.3,0,6.6-1.2,9.1-3.5l164-149.7c3.9-3.1,7.9-3.8,10.6-3.8c8.5,0,17.3,6.4,17.3,17.2v306.5
	C487.7,420.5,478.9,426.9,470.3,426.9z"/>
</svg>
