<?xml version="1.0" encoding="utf-8"?>
<!-- Generator: Adobe Illustrator 25.2.0, SVG Export Plug-In . SVG Version: 6.00 Build 0)  -->
<svg version="1.1" id="Layer_1" xmlns="http://www.w3.org/2000/svg" xmlns:xlink="http://www.w3.org/1999/xlink" x="0px" y="0px"
	 viewBox="0 0 512 512" style="enable-background:new 0 0 512 512;" xml:space="preserve">
<style type="text/css">
	.st0{fill:#C5C5C5;}
	.st1{fill:#2D2D30;}
</style>
<path class="st0" d="M80,490.8c-32.4,0-58.8-26.4-58.8-58.8V80c0-32.4,26.4-58.8,58.8-58.8h352c32.4,0,58.8,26.4,58.8,58.8v352
	c0,32.4-26.4,58.8-58.8,58.8H80z"/>
<path class="st1" d="M432,32H80c-26.5,0-48,21.5-48,48v352c0,26.5,21.5,48,48,48h352c26.5,0,48-21.5,48-48V80
	C480,53.5,458.5,32,432,32z"/>
</svg>
