<svg xmlns="http://www.w3.org/2000/svg" xmlns:xlink="http://www.w3.org/1999/xlink" id="Layer_1" x="0" y="0" version="1.1" viewBox="0 0 512 512" xml:space="preserve" style="enable-background:new 0 0 512 512"><style type="text/css">.st0{fill:#c5c5c5}.st1{fill:#2d2d30}</style><path d="M80,490.8c-32.4,0-58.8-26.4-58.8-58.8V80c0-32.4,26.4-58.8,58.8-58.8h352c32.4,0,58.8,26.4,58.8,58.8v352	c0,32.4-26.4,58.8-58.8,58.8H80z" class="st0"/><path d="M432,32H80c-26.5,0-48,21.5-48,48v352c0,26.5,21.5,48,48,48h352c26.5,0,48-21.5,48-48V80	C480,53.5,458.5,32,432,32z" class="st1"/></svg>