<?xml version="1.0" encoding="utf-8"?>
<!-- Generator: Adobe Illustrator 24.0.1, SVG Export Plug-In . SVG Version: 6.00 Build 0)  -->
<svg version="1.1" id="Layer_1" xmlns="http://www.w3.org/2000/svg" xmlns:xlink="http://www.w3.org/1999/xlink" x="0px" y="0px"
	 viewBox="0 0 512 512" style="enable-background:new 0 0 512 512;" xml:space="preserve">
<style type="text/css">
	.st0{fill:#F6F6F6;}
	.st1{fill:#424242;}
</style>
<path class="st0" d="M404.5,501.1c-13.2,0-25.6-5.2-35-14.5L264.8,381.8c-5.8-5.8-10.5-12.3-14.3-19.2c-0.8,2.4-2.1,4.6-3.9,6.4
	L136.1,479.6c-13.9,13.9-32.3,21.5-51.8,21.5s-38-7.6-51.8-21.5c-28.6-28.6-28.6-75.1,0-103.7l136.3-136.4c3-3,7.1-4.7,11.4-4.7
	c0.6,0,1.2,0,1.7,0.1l-20-20h-48.9c-5.1,0-9.8-2.4-12.9-6.4L14.2,94c-4.8-6.4-4.2-15.4,1.5-21l57.2-57.2C76,12.6,80.2,11,84.3,11
	c3.4,0,6.8,1.1,9.7,3.2L208.4,100c4.1,3,6.4,7.8,6.4,12.9v13.2c5.4-27.5,18.7-52.6,38.8-72.7C281,26.1,317.4,11,356.1,11
	c11.8,0,23.5,1.4,35,4.2c0,0,0.1,0,0.1,0c9.4,2.4,16.8,9.7,19.4,19c2.6,9.3-0.1,19.3-6.9,26.1L343,121l6.9,41.2l41.2,6.9l60.7-60.7
	c5.1-5.1,11.8-7.9,19-7.9c12.4,0,23.1,8.4,26,20.4c5.9,23.8,5.7,48.9-0.6,72.6c-6.5,24.4-19.5,46.9-37.5,64.9
	c-12.4,12.4-27.2,22.4-44.1,29.7c-2.1,0.9-4.3,1.3-6.4,1.3c-0.6,0-1.1,0-1.6-0.1l80.2,80.2c19.2,19.2,19.2,50.5,0,69.9l-47.2,47.2
	C430.2,495.9,417.7,501.1,404.5,501.1z M84.3,422.3c-3,0-5.4,2.4-5.4,5.4c0,2.9,2.5,5.4,5.4,5.4c3,0,5.4-2.4,5.4-5.4
	C89.7,424.7,87.3,422.3,84.3,422.3z"/>
<path class="st1" d="M475.2,380.9L370.5,276.2c-20.7-20.7-51.5-24.7-76.4-12.4l-95.3-95.3v-55.5L84.3,27.1L27.1,84.3l85.8,114.5
	h55.5l95.3,95.3c-12.2,24.9-8.2,55.7,12.4,76.4l104.7,104.7c13.1,13.1,34.2,13.1,47.1,0l47.1-47.1
	C488.1,415,488.1,393.9,475.2,380.9L475.2,380.9z M323.7,228.3c25.3,0,49.1,9.8,67,27.7l17.3,17.3c14.1-6.2,27.5-14.8,39.2-26.4
	c33.2-33.2,44.4-79.9,33.9-122.2c-2-8-12.1-10.8-18-4.9l-66.5,66.5l-60.7-10.1l-10.1-60.7L392.3,49c5.9-5.9,3-16-5.1-18.1
	c-42.4-10.5-89.1,0.8-122.2,33.9c-25.5,25.5-37.5,59.1-36.8,92.6l73.4,73.4C308.8,229.2,316.4,228.3,323.7,228.3L323.7,228.3z
	 M230.8,301.6l-50.7-50.7L43.8,387.3c-22.4,22.4-22.4,58.6,0,80.9s58.6,22.4,80.9,0l110.5-110.5
	C228.5,339.9,226.4,320.5,230.8,301.6L230.8,301.6z M84.3,449.2c-11.8,0-21.5-9.7-21.5-21.5c0-11.9,9.6-21.5,21.5-21.5
	c11.9,0,21.5,9.6,21.5,21.5C105.8,439.5,96.2,449.2,84.3,449.2z"/>
</svg>
