<?xml version="1.0" encoding="utf-8"?>
<!-- Generator: Adobe Illustrator 25.2.0, SVG Export Plug-In . SVG Version: 6.00 Build 0)  -->
<svg version="1.1" id="Layer_1" xmlns="http://www.w3.org/2000/svg" xmlns:xlink="http://www.w3.org/1999/xlink" x="0px" y="0px"
	 viewBox="0 0 512 512" style="enable-background:new 0 0 512 512;" xml:space="preserve">
<style type="text/css">
	.st0{fill:#2D2D30;}
	.st1{fill:#C5C5C5;}
</style>
<path class="st0" d="M174.9,501.9c-10.9,0-20.6-6.5-24.8-16.6c-4.2-10.1-1.9-21.5,5.8-29.2l74.8-74.8c1.5-1.5,3.1-2.8,4.8-3.8V20.9
	c0-6,4.8-10.8,10.8-10.8h106.9c6,0,10.8,4.8,10.8,10.8V459c0,23.6-19.2,42.9-42.9,42.9H174.9z"/>
<path class="st1" d="M246.3,20.9v363.3h3.3c-4.3,0-8.3,1.7-11.3,4.7l-74.8,74.8c-10.1,10.1-2.9,27.4,11.3,27.4h146.3
	c17.7,0,32.1-14.4,32.1-32.1V20.9H246.3z"/>
</svg>
