<?xml version="1.0" encoding="utf-8"?>
<!-- Generator: Adobe Illustrator 24.0.1, SVG Export Plug-In . SVG Version: 6.00 Build 0)  -->
<svg version="1.1" id="Layer_1" xmlns="http://www.w3.org/2000/svg" xmlns:xlink="http://www.w3.org/1999/xlink" x="0px" y="0px"
	 viewBox="0 0 512 512" style="enable-background:new 0 0 512 512;" xml:space="preserve">
<style type="text/css">
	.st0{fill:#2D2D30;}
	.st1{fill:#C5C5C5;}
</style>
<path class="st0" d="M157.2,285.7c-28.5,0-55.7-9.2-78-26.2c-5.1,3-10.9,4.5-17,4.5c-9.1,0-17.6-3.5-24-10c0,0-11.3-11.3-11.3-11.4
	c-13.2-13.3-13.2-34.8,0-48c0,0,169.4-169.4,169.4-169.4c6.4-6.4,14.9-9.9,24-9.9c9.1,0,17.6,3.5,24,10l11.3,11.3
	c11.1,11.1,12.9,28,5.4,41c17,22.3,26.2,49.5,26.2,78c0,21.2-5.4,41.9-16.1,61.5c-0.8,1.5-1.8,2.9-3,4.1l-45.2,45.3
	c-1.2,1.2-2.6,2.3-4.2,3.1C199,280.3,178.3,285.7,157.2,285.7L157.2,285.7z"/>
<path class="st1" d="M255.2,208.5c8.6-15.8,13.9-33.6,13.9-52.9c0-29.2-11.5-57.2-32-78.1l5.7-5.7c6.2-6.2,6.2-16.4,0-22.6L231.5,38
	c-6.2-6.2-16.4-6.3-22.6,0c0,0,0,0,0,0L39.5,207.4c-6.2,6.2-6.3,16.4,0,22.6c0,0,0,0,0,0l11.3,11.3c6.2,6.2,16.4,6.3,22.6,0
	c0,0,0,0,0,0l5.7-5.7c20.8,20.5,48.8,32,78,32c19.2,0,37.1-5.3,52.9-13.8L255.2,208.5z"/>
</svg>
