<?xml version="1.0" encoding="utf-8"?>
<!-- Generator: Adobe Illustrator 24.0.1, SVG Export Plug-In . SVG Version: 6.00 Build 0)  -->
<svg version="1.1" id="Layer_1" xmlns="http://www.w3.org/2000/svg" xmlns:xlink="http://www.w3.org/1999/xlink" x="0px" y="0px"
	 viewBox="0 0 512 512" style="enable-background:new 0 0 512 512;" xml:space="preserve">
<style type="text/css">
	.st0{fill:#2D2D30;}
	.st1{fill:#C5C5C5;}
</style>
<path class="st0" d="M397.2,496.7c-18.1,0-32.9-14.2-33.9-32.1c-17.2-1-31-14.8-32-32c-17.2-1-31-14.8-32-32c-17.2-1-31-14.8-32-32
	c-17.2-1-31-14.8-32-32c-17.8-1-32.1-15.8-32.1-33.9s14.2-32.9,32.1-33.9c1-17.2,14.8-31,32-32c1-17.8,15.8-32.1,33.9-32.1
	s32.9,14.2,33.9,32.1c17.2,1,31,14.8,32,32c17.2,1,31,14.8,32,32c17.2,1,31,14.8,32,32c17.2,1,31,14.8,32,32
	c17.8,1,32.1,15.8,32.1,33.9s-14.2,32.9-32.1,33.9c-1,17.2-14.8,31-32,32C430.1,482.4,415.3,496.7,397.2,496.7z M157.2,285.7
	c-28.5,0-55.7-9.2-78-26.2c-5.1,3-10.9,4.5-17,4.5c-9.1,0-17.6-3.5-24-10c0,0-11.3-11.3-11.3-11.4c-13.2-13.3-13.2-34.8,0-48
	c0,0,169.4-169.4,169.4-169.4c6.4-6.4,14.9-9.9,24-9.9c9.1,0,17.6,3.5,24,10l11.3,11.3c11.1,11.1,12.9,28,5.4,41
	c17,22.3,26.2,49.5,26.2,78c0,21.2-5.4,41.9-16.1,61.5c-0.8,1.5-1.8,2.9-3,4.1l-45.2,45.3c-1.2,1.2-2.6,2.3-4.2,3.1
	C199,280.3,178.3,285.7,157.2,285.7L157.2,285.7z"/>
<path class="st1" d="M269.2,254.7c-8.8,0-16,7.2-16,16c0,8.8,7.2,16,16,16s16-7.2,16-16C285.2,261.8,278,254.7,269.2,254.7z
	 M301.2,318.7c8.8,0,16-7.2,16-16s-7.2-16-16-16s-16,7.2-16,16S292.3,318.7,301.2,318.7z M269.2,350.7c8.8,0,16-7.2,16-16
	s-7.2-16-16-16s-16,7.2-16,16S260.3,350.7,269.2,350.7z M237.2,286.7c-8.8,0-16,7.2-16,16s7.2,16,16,16s16-7.2,16-16
	S246,286.7,237.2,286.7z M317.2,270.7c0,8.8,7.2,16,16,16s16-7.2,16-16c0-8.8-7.2-16-16-16S317.2,261.8,317.2,270.7z M301.2,222.7
	c-8.8,0-16,7.2-16,16s7.2,16,16,16s16-7.2,16-16S310,222.7,301.2,222.7z M365.2,286.7c-8.8,0-16,7.2-16,16s7.2,16,16,16
	s16-7.2,16-16S374,286.7,365.2,286.7z M333.2,318.7c-8.8,0-16,7.2-16,16s7.2,16,16,16s16-7.2,16-16S342,318.7,333.2,318.7z
	 M301.2,350.7c-8.8,0-16,7.2-16,16s7.2,16,16,16s16-7.2,16-16S310,350.7,301.2,350.7z M397.2,318.7c-8.8,0-16,7.2-16,16
	s7.2,16,16,16s16-7.2,16-16S406,318.7,397.2,318.7z M365.2,350.7c-8.8,0-16,7.2-16,16s7.2,16,16,16s16-7.2,16-16
	S374,350.7,365.2,350.7z M333.2,382.7c-8.8,0-16,7.2-16,16s7.2,16,16,16s16-7.2,16-16S342,382.7,333.2,382.7z M429.2,350.7
	c-8.8,0-16,7.2-16,16s7.2,16,16,16s16-7.2,16-16S438,350.7,429.2,350.7z M397.2,382.7c-8.8,0-16,7.2-16,16s7.2,16,16,16
	s16-7.2,16-16S406,382.7,397.2,382.7z M365.2,414.7c-8.8,0-16,7.2-16,16s7.2,16,16,16s16-7.2,16-16S374,414.7,365.2,414.7z
	 M461.2,382.7c-8.8,0-16,7.2-16,16s7.2,16,16,16s16-7.2,16-16S470,382.7,461.2,382.7z M429.2,414.7c-8.8,0-16,7.2-16,16
	s7.2,16,16,16s16-7.2,16-16S438,414.7,429.2,414.7z M397.2,446.7c-8.8,0-16,7.2-16,16s7.2,16,16,16s16-7.2,16-16
	S406,446.7,397.2,446.7z M255.2,208.5c8.6-15.8,13.9-33.6,13.9-52.9c0-29.2-11.5-57.2-32-78.1l5.7-5.7c6.2-6.2,6.2-16.4,0-22.6
	L231.5,38c-6.2-6.2-16.4-6.3-22.6,0c0,0,0,0,0,0L39.5,207.4c-6.2,6.2-6.3,16.4,0,22.6c0,0,0,0,0,0l11.3,11.3
	c6.2,6.2,16.4,6.3,22.6,0c0,0,0,0,0,0l5.7-5.7c20.8,20.5,48.8,32,78,32c19.2,0,37.1-5.3,52.9-13.8L255.2,208.5z"/>
</svg>
