<?xml version="1.0" encoding="utf-8"?>
<!-- Generator: Adobe Illustrator 24.0.1, SVG Export Plug-In . SVG Version: 6.00 Build 0)  -->
<svg version="1.1" id="Layer_1" xmlns="http://www.w3.org/2000/svg" xmlns:xlink="http://www.w3.org/1999/xlink" x="0px" y="0px"
	 viewBox="0 0 16 16" style="enable-background:new 0 0 16 16;" xml:space="preserve">
<style type="text/css">
	.st0{fill:#2D2D30;}
	.st1{fill:#C5C5C5;}
</style>
<path class="st0" d="M14.2,9.6l0.3-1.1l-1.3-0.2l-0.1,0c-0.5,0.1-1.6,0.3-2.8,1.2l-0.1,0.1L10,9.9l-0.2,0.3c-1.2,1.2-3.1,1.2-4.2,0
	C5,9.6,4.7,8.9,4.7,8.1C4.7,7.3,5,6.5,5.6,6c1-1,2.6-1.1,3.7-0.4L7.2,7.6c0,0,3.3,0.3,3.9,0.4l0,0l4,0.3L14.5,2l-0.8-0.8L12,2.9
	C9.3,0.7,5.4,0.8,2.9,3.3c-1.3,1.3-2,3-2,4.8c0,1.8,0.7,3.5,2,4.8c2.6,2.6,6.9,2.6,9.5,0C13.3,12,14,10.9,14.2,9.6z"/>
<path class="st1" d="M13.3,9.3l-0.1,0c-0.4,0-1.3,0.2-2.3,1c-0.2,0.2-0.3,0.4-0.3,0.5c-1.6,1.6-4.1,1.6-5.7,0C4.1,10,3.7,9,3.7,8
	c0-1,0.4-2,1.2-2.8c1.6-1.6,4.1-1.6,5.7,0l0.2,0.3L9.5,6.8c0,0,2.1,0.2,2.1,0.2L14,7.2l-0.4-4.5L12,4.2l-0.2-0.3
	c-2.2-2.2-5.9-2.2-8.1,0C2.5,5,2,6.5,2,8c0,1.5,0.6,3,1.7,4.1c2.2,2.2,5.9,2.2,8.1,0C12.6,11.3,13.1,10.3,13.3,9.3z"/>
</svg>
