<svg xmlns="http://www.w3.org/2000/svg" xmlns:xlink="http://www.w3.org/1999/xlink" id="Layer_1" x="0" y="0" version="1.1" viewBox="0 0 512 512" xml:space="preserve" style="enable-background:new 0 0 512 512"><style type="text/css">.st0{fill:#2d2d30}.st1{fill:#c5c5c5}</style><path d="M254.4,495.8c-7.5,0-14.4-4-18.2-10.4L186,399.8l-19.8,8.5c-2.6,1.1-5.4,1.7-8.3,1.7c-8.5,0-16.1-5-19.4-12.8	c-2.2-5.2-2.3-10.9-0.2-16.2c2.1-5.2,6.1-9.3,11.3-11.6l21.3-9.1v-55.4c0-1.3,0.1-2.7,0.4-3.9l-5.1,2.2c-2.6,1.1-5.4,1.7-8.3,1.7	c-8.5,0-16.1-5-19.4-12.8c-4.6-10.7,0.4-23.2,11.1-27.7l21.3-9.1v-55.4c0-1.3,0.1-2.7,0.4-3.9l-5.1,2.2c-2.6,1.1-5.4,1.7-8.3,1.7	c-8.5,0-16.1-5-19.4-12.8c-4.6-10.7,0.4-23.2,11.1-27.7l21.3-9.1V37.3c0-11.6,9.5-21.1,21.1-21.1h124.7c11.6,0,21.1,9.5,21.1,21.1	v41.2l7.9-3.4c2.6-1.1,5.4-1.7,8.3-1.7c8.5,0,16.1,5,19.4,12.8c2.2,5.2,2.3,10.9,0.2,16.2c-2.1,5.2-6.1,9.3-11.3,11.6l-43.9,18.8	c10.8,0.9,19.4,10,19.4,21.1v29.9l7.9-3.4c2.6-1.1,5.4-1.7,8.3-1.7c8.5,0,16.1,5,19.4,12.8c2.2,5.2,2.3,10.9,0.2,16.2	c-2.1,5.2-6.1,9.3-11.3,11.6l-39.2,16.8c8.5,2.7,14.6,10.7,14.6,20.1v32.8l7.9-3.4c2.6-1.1,5.4-1.7,8.3-1.7c8.5,0,16.1,5,19.4,12.8	c2.2,5.2,2.3,10.9,0.2,16.2c-2.1,5.2-6.1,9.3-11.3,11.6l-24.5,10.5v33.6c0,3.8-1,7.5-2.9,10.7l-62.4,106.3	C268.8,491.8,261.9,495.8,254.4,495.8z M254.4,432.9l41.2-70.3v-9.8L225.1,383L254.4,432.9z M203.5,287.1c5.8,3.8,9.6,10.3,9.6,17.7	v37.3l82.5-35.3V256c0-3.3,0.8-6.4,2.1-9.2L203.5,287.1z M203.5,182c5.8,3.8,9.6,10.3,9.6,17.7V237l82.5-35.3v-47.9	c0-5,1.8-9.6,4.7-13.3L203.5,182z M213.2,131.9l82.5-35.3V58.5h-82.5V131.9z" class="st0"/><path d="M157.9,188.9c1.4,0,2.7-0.3,4.1-0.8l158.8-68c0,0,0.1,0,0.1-0.1l37.3-16c5.2-2.2,7.7-8.3,5.4-13.6	c-2.2-5.2-8.3-7.7-13.6-5.4l-23,9.8V37.3c0-5.7-4.6-10.3-10.3-10.3H192c-5.7,0-10.3,4.6-10.3,10.3v119.8L153.8,169	c-5.2,2.2-7.7,8.3-5.4,13.6C150.1,186.5,153.9,188.9,157.9,188.9z M202.4,47.7h104.1v56l-104.1,44.5V47.7z M350,190.2l-23,9.8v-46.2	c0-5.7-4.6-10.3-10.3-10.3s-10.3,4.6-10.3,10.3v55.1l-104.1,44.5v-53.7c0-5.7-4.6-10.3-10.3-10.3s-10.3,4.6-10.3,10.3v62.6	l-27.9,11.9c-5.2,2.2-7.7,8.3-5.4,13.6c1.7,3.9,5.5,6.3,9.5,6.3c1.4,0,2.7-0.3,4.1-0.8l34-14.6c0,0,0.1,0,0.1-0.1l124.6-53.3	c0,0,0.1,0,0.1-0.1l37.3-16c5.2-2.2,7.7-8.3,5.4-13.6C361.4,190.4,355.3,188,350,190.2z M350,295.4l-23,9.8V256	c0-5.7-4.6-10.3-10.3-10.3s-10.3,4.6-10.3,10.3v58l-104.1,44.5v-53.7c0-5.7-4.6-10.3-10.3-10.3s-10.3,4.6-10.3,10.3v62.6l-27.9,11.9	c-5.2,2.2-7.7,8.3-5.4,13.6c1.7,3.9,5.5,6.3,9.5,6.3c1.4,0,2.7-0.3,4.1-0.8l28.5-12.2l55,93.8c1.9,3.2,5.2,5.1,8.9,5.1	c3.7,0,7.1-1.9,8.9-5.1l62.4-106.3c0.9-1.6,1.4-3.4,1.4-5.2v-40.7l31.1-13.3c5.2-2.2,7.7-8.3,5.4-13.6	C361.4,295.6,355.3,293.1,350,295.4z M306.4,365.6l-52,88.7l-44.8-76.3l96.8-41.4V365.6z" class="st1"/></svg>