<?xml version="1.0" encoding="utf-8"?>
<!-- Generator: Adobe Illustrator 25.2.0, SVG Export Plug-In . SVG Version: 6.00 Build 0)  -->
<svg version="1.1" id="Layer_1" xmlns="http://www.w3.org/2000/svg" xmlns:xlink="http://www.w3.org/1999/xlink" x="0px" y="0px"
	 viewBox="0 0 512 512" style="enable-background:new 0 0 512 512;" xml:space="preserve">
<style type="text/css">
	.st0{fill:#2D2D30;}
	.st1{fill:#C5C5C5;}
</style>
<path class="st0" d="M135.9,497.5c-7.5,0-14.4-4-18.2-10.4l-50.2-85.6L47.7,410c-2.6,1.1-5.4,1.7-8.3,1.7c-8.5,0-16.1-5-19.4-12.8
	c-2.2-5.2-2.3-10.9-0.2-16.2c2.1-5.2,6.1-9.3,11.3-11.6l21.3-9.1v-55.4c0-1.3,0.1-2.7,0.4-3.9l-5.1,2.2c-2.6,1.1-5.4,1.7-8.3,1.7
	c-8.5,0-16.1-5-19.4-12.8c-4.6-10.7,0.4-23.2,11.1-27.7l21.3-9.1v-55.4c0-1.3,0.1-2.7,0.4-3.9l-5.1,2.2c-2.6,1.1-5.4,1.7-8.3,1.7
	c-8.5,0-16.1-5-19.4-12.8c-4.6-10.7,0.4-23.2,11.1-27.7l21.3-9.1V39.1c0-11.6,9.5-21.1,21.1-21.1h124.7c11.6,0,21.1,9.5,21.1,21.1
	v41.2l7.9-3.4c2.6-1.1,5.4-1.7,8.3-1.7c8.5,0,16.1,5,19.4,12.8c2.2,5.2,2.3,10.9,0.2,16.2c-2.1,5.2-6.1,9.3-11.3,11.6L200,134.5
	c10.8,0.9,19.4,10,19.4,21.1v29.9l7.9-3.4c2.6-1.1,5.4-1.7,8.3-1.7c8.5,0,16.1,5,19.4,12.8c2.2,5.2,2.3,10.9,0.2,16.2
	c-2.1,5.2-6.1,9.3-11.3,11.6l-39.2,16.8c8.5,2.7,14.6,10.7,14.6,20.1v32.8l7.9-3.4c2.6-1.1,5.4-1.7,8.3-1.7c8.5,0,16.1,5,19.4,12.8
	c2.2,5.2,2.3,10.9,0.2,16.2c-2.1,5.2-6.1,9.3-11.3,11.6l-24.5,10.5v33.6c0,3.8-1,7.5-2.9,10.7l-62.4,106.3
	C150.4,493.6,143.4,497.5,135.9,497.5z M135.9,434.7l41.2-70.3v-9.8l-70.5,30.2L135.9,434.7z M85,288.9c5.8,3.8,9.6,10.3,9.6,17.7
	V344l82.5-35.3v-50.9c0-3.3,0.8-6.4,2.1-9.2L85,288.9z M85,183.7c5.8,3.8,9.6,10.3,9.6,17.7v37.3l82.5-35.3v-47.9
	c0-5,1.8-9.6,4.7-13.3L85,183.7z M94.7,133.6l82.5-35.3V60.2H94.7V133.6z"/>
<path class="st1" d="M39.4,190.6c1.4,0,2.7-0.3,4.1-0.8l158.8-68c0,0,0.1,0,0.1-0.1l37.3-16c5.2-2.2,7.7-8.3,5.4-13.6
	c-2.2-5.2-8.3-7.7-13.6-5.4l-23,9.8V39.1c0-5.7-4.6-10.3-10.3-10.3H73.5c-5.7,0-10.3,4.6-10.3,10.3v119.8l-27.9,11.9
	c-5.2,2.2-7.7,8.3-5.4,13.6C31.6,188.3,35.4,190.6,39.4,190.6z M83.9,49.4H188v56L83.9,150V49.4z M231.6,192l-23,9.8v-46.2
	c0-5.7-4.6-10.3-10.3-10.3c-5.7,0-10.3,4.6-10.3,10.3v55.1L83.9,255.2v-53.7c0-5.7-4.6-10.3-10.3-10.3c-5.7,0-10.3,4.6-10.3,10.3
	V264l-27.9,11.9c-5.2,2.2-7.7,8.3-5.4,13.6c1.7,3.9,5.5,6.3,9.5,6.3c1.4,0,2.7-0.3,4.1-0.8l34-14.6c0,0,0.1,0,0.1-0.1L202.2,227
	c0,0,0.1,0,0.1-0.1l37.3-16c5.2-2.2,7.7-8.3,5.4-13.6C242.9,192.1,236.8,189.7,231.6,192z M231.6,297.1l-23,9.8v-49.2
	c0-5.7-4.6-10.3-10.3-10.3c-5.7,0-10.3,4.6-10.3,10.3v58L83.9,360.3v-53.7c0-5.7-4.6-10.3-10.3-10.3c-5.7,0-10.3,4.6-10.3,10.3v62.6
	l-27.9,11.9c-5.2,2.2-7.7,8.3-5.4,13.6c1.7,3.9,5.5,6.3,9.5,6.3c1.4,0,2.7-0.3,4.1-0.8L72,387.9l55,93.8c1.9,3.2,5.2,5.1,8.9,5.1
	c3.7,0,7.1-1.9,8.9-5.1l62.4-106.3c0.9-1.6,1.4-3.4,1.4-5.2v-40.7l31.1-13.3c5.2-2.2,7.7-8.3,5.4-13.6
	C242.9,297.3,236.8,294.9,231.6,297.1z M188,367.3l-52,88.7l-44.8-76.3l96.8-41.4V367.3z"/>
<path class="st0" d="M349.5,302.8c-38.8,0-75.2-15.1-102.7-42.5c-27.4-27.5-42.5-63.9-42.5-102.7s15.1-75.2,42.5-102.7
	c27.5-27.4,63.9-42.5,102.7-42.5s75.2,15.1,102.7,42.5c27.4,27.4,42.5,63.8,42.5,102.7c0,38.8-15.1,75.2-42.5,102.7
	C424.7,287.7,388.2,302.8,349.5,302.8z M349.5,51.5c-58.5,0-106.1,47.6-106.1,106.1s47.6,106.1,106.1,106.1s106.1-47.6,106.1-106.1
	S408,51.5,349.5,51.5z M388.1,218.5c-2.7,0-5.3-0.8-7.5-2.4c0,0-47.7-34.6-47.7-34.7c-3.3-2.4-5.2-6.3-5.2-10.3V79.1
	c0-7,5.7-12.8,12.8-12.8h17.9c7,0,12.8,5.7,12.8,12.8v76.4l35,25.4c5.7,4.1,6.9,12.1,2.8,17.9l-10.5,14.6
	C396,216.6,392.2,218.5,388.1,218.5z"/>
<path class="st1" d="M349.5,18.5c-76.9,0-139.1,62.2-139.1,139.1s62.2,139.1,139.1,139.1s139.1-62.2,139.1-139.1
	S426.3,18.5,349.5,18.5z M349.5,269.8c-62,0-112.2-50.2-112.2-112.2S287.5,45.4,349.5,45.4s112.2,50.2,112.2,112.2
	S411.4,269.8,349.5,269.8z M384.1,211.2l-47.6-34.6c-1.7-1.3-2.7-3.3-2.7-5.4V79.1c0-3.7,3-6.7,6.7-6.7h17.9c3.7,0,6.7,3,6.7,6.7
	v79.5l37.5,27.3c3,2.2,3.7,6.4,1.5,9.4l-10.5,14.5C391.4,212.7,387.2,213.4,384.1,211.2L384.1,211.2z"/>
</svg>
