<svg xmlns="http://www.w3.org/2000/svg" xmlns:xlink="http://www.w3.org/1999/xlink" id="Layer_1" x="0" y="0" version="1.1" viewBox="0 0 448 512" xml:space="preserve" style="enable-background:new 0 0 448 512"><style type="text/css">.st0{fill:#2d2d30}.st1{fill:#c5c5c5}</style><path d="M71.3,434.1c-11.3,0-21.8-4.4-29.7-12.4l-22.5-22.5c-8-8-12.4-18.6-12.3-29.8c0-11.2,4.4-21.7,12.4-29.6	l83.6-83.6l-83.7-83.7c-8-8-12.4-18.6-12.3-29.8c0-11.2,4.4-21.6,12.3-29.5c0,0,22.5-22.8,22.5-22.8C49.5,82.3,60.1,78,71.3,78	c11.3,0,21.8,4.4,29.7,12.4l135.9,135.9c7.9,7.9,12.4,18.4,12.4,29.7c0,11.2-4.3,21.8-12.3,29.8l-136,136	C93.1,429.7,82.5,434.1,71.3,434.1z M263.4,433.9c-11.2,0-21.8-4.4-29.7-12.3l-22.6-22.6c-7.9-7.8-12.3-18.3-12.3-29.5	c0-11.3,4.3-21.9,12.3-29.8l83.7-83.7l-83.7-83.7c-7.9-7.8-12.3-18.3-12.3-29.5c0-11.3,4.3-21.9,12.3-29.8l22.6-22.6	c7.8-7.9,18.4-12.3,29.6-12.3c11.2,0,21.8,4.4,29.7,12.3l136,136c8,8,12.4,18.6,12.3,29.9c-0.1,11.2-4.5,21.6-12.4,29.4L293,421.5	C285.2,429.4,274.6,433.9,263.4,433.9z" class="st0"/><path d="M224.3,273l-136,136c-9.4,9.4-24.6,9.4-33.9,0l-22.6-22.6c-9.4-9.4-9.4-24.6,0-33.9l96.4-96.4l-96.4-96.4	c-9.4-9.4-9.4-24.6,0-33.9L54.3,103c9.4-9.4,24.6-9.4,33.9,0l136,136C233.7,248.4,233.7,263.6,224.3,273z M416.3,239l-136-136	c-9.4-9.4-24.6-9.4-33.9,0l-22.6,22.6c-9.4,9.4-9.4,24.6,0,33.9l96.4,96.4l-96.4,96.4c-9.4,9.4-9.4,24.6,0,33.9l22.6,22.6	c9.4,9.4,24.6,9.4,33.9,0l136-136C425.7,263.6,425.7,248.4,416.3,239L416.3,239z" class="st1"/></svg>