<svg xmlns="http://www.w3.org/2000/svg" xmlns:xlink="http://www.w3.org/1999/xlink" id="Layer_1" x="0" y="0" version="1.1" viewBox="0 0 512 512" xml:space="preserve" style="enable-background:new 0 0 512 512"><style type="text/css">.st0{fill:#2d2d30}.st1{fill:#c5c5c5}</style><path d="M501.2,84v344.8c0,6.3-5.2,11.5-11.5,11.5h-38.3c-6.3,0-11.5-5.2-11.5-11.5V283.4L275.6,433.3	c-19.7,16.5-50.3,2.7-50.3-23.6V283.4L61.1,433.3c-19.7,16.5-50.3,2.7-50.3-23.6V103.2c0-26.2,30.6-39.9,50.3-23.6l164.3,148.8	V103.2c0-26.2,30.6-39.9,50.3-23.6l164.3,148.8V84c0-6.3,5.2-11.5,11.5-11.5h38.3C496,72.6,501.2,77.7,501.2,84z" class="st0"/><path d="M256.2,426.9c-4.4,0-8.9-1.7-12.1-4.8c-2.4-2.2-5.2-6.2-5.2-12.4V283.4c0-5.3-3.2-10.2-8.1-12.4	c-1.8-0.8-3.6-1.1-5.4-1.1c-3.3,0-6.6,1.2-9.1,3.5l-164,149.7c-3.9,3.2-7.9,3.8-10.6,3.8c-4.4,0-8.9-1.7-12.1-4.8	c-2.4-2.2-5.2-6.2-5.2-12.4V103.2c0-10.7,8.8-17.2,17.3-17.2c2.7,0,6.7,0.7,10.6,3.8l164,148.6c2.5,2.3,5.8,3.5,9.1,3.5	c1.8,0,3.7-0.4,5.5-1.2c4.9-2.2,8-7,8-12.3V103.2c0-10.7,8.8-17.2,17.3-17.2c2.7,0,6.7,0.7,10.6,3.8l164,148.6	c2.5,2.3,5.8,3.5,9.1,3.5c1.8,0,3.7-0.4,5.5-1.2c4.9-2.2,8-7,8-12.3V86.1h34.3v340.8h-34.3V283.4c0-5.3-3.2-10.2-8-12.4	c-1.8-0.8-3.6-1.1-5.4-1.1c-3.3,0-6.6,1.2-9.1,3.5l-164,149.7C262.9,426.2,258.9,426.9,256.2,426.9z" class="st1"/></svg>