<svg xmlns="http://www.w3.org/2000/svg" xmlns:xlink="http://www.w3.org/1999/xlink" id="Layer_1" x="0" y="0" version="1.1" viewBox="0 0 512 512" xml:space="preserve" style="enable-background:new 0 0 512 512"><style type="text/css">.st0{fill:#2d2d30}.st1{fill:#c5c5c5}</style><path d="M79,489.8c-32.4,0-58.8-26.4-58.8-58.8V79c0-32.4,26.4-58.8,58.8-58.8h352c32.4,0,58.8,26.4,58.8,58.8v352	c0,32.4-26.4,58.8-58.8,58.8H79z" class="st0"/><path d="M431,31H79c-26.5,0-48,21.5-48,48v352c0,26.5,21.5,48,48,48h352c26.5,0,48-21.5,48-48V79	C479,52.5,457.5,31,431,31z" class="st1"/></svg>