<?xml version="1.0" encoding="utf-8"?>
<!-- Generator: Adobe Illustrator 24.1.1, SVG Export Plug-In . SVG Version: 6.00 Build 0)  -->
<svg version="1.1" id="Layer_1" xmlns="http://www.w3.org/2000/svg" xmlns:xlink="http://www.w3.org/1999/xlink" x="0px" y="0px"
	 viewBox="0 0 512 512" style="enable-background:new 0 0 512 512;" xml:space="preserve">
<style type="text/css">
	.st0{fill:#2D2D30;}
	.st1{fill:#C5C5C5;}
</style>
<path class="st0" d="M110.6,495.5c-21.4,0-38.8-17.4-38.8-38.8V55.3c0-21.4,17.4-38.8,38.8-38.8h173c5.6,0,10.5,2.5,13.8,6.5
	c3.3-4,8.3-6.5,13.8-6.5h5.3c10.4,0,20.1,4,27.4,11.3l84.7,84.8c7.2,7.2,11.3,17.2,11.3,27.3v5.3c0,5.6-2.5,10.5-6.5,13.8
	c4,3.3,6.5,8.3,6.5,13.8v283.8c0,21.4-17.4,38.8-38.8,38.8H110.6z"/>
<path class="st1" d="M283.7,152.2V34.5h-173c-11.5,0-20.8,9.3-20.8,20.8v401.5c0,11.5,9.3,20.8,20.8,20.8h290.7
	c11.5,0,20.8-9.3,20.8-20.8V172.9H304.5C293,172.9,283.7,163.6,283.7,152.2z M340.1,339.1h-56.4v69.2c0,7.6-6.2,13.8-13.8,13.8
	h-27.7c-7.6,0-13.8-6.2-13.8-13.8v-69.2h-56.4c-12.4,0-18.5-15-9.8-23.7l83.4-82.8c5.8-5.7,15-5.7,20.8,0l83.4,82.8
	C358.6,324.1,352.4,339.1,340.1,339.1z M416.1,125.4l-84.7-84.8c-3.9-3.9-9.2-6.1-14.7-6.1h-5.3v110.7h110.7V140
	C422.1,134.5,420,129.2,416.1,125.4z"/>
</svg>
