<?xml version="1.0" encoding="utf-8"?>
<!-- Generator: Adobe Illustrator 25.2.0, SVG Export Plug-In . SVG Version: 6.00 Build 0)  -->
<svg version="1.1" id="Layer_1" xmlns="http://www.w3.org/2000/svg" xmlns:xlink="http://www.w3.org/1999/xlink" x="0px" y="0px"
	 viewBox="0 0 512 512" style="enable-background:new 0 0 512 512;" xml:space="preserve">
<style type="text/css">
	.st0{fill:#2D2D30;}
	.st1{fill:#C5C5C5;}
</style>
<path class="st0" d="M293,52.9c-111.5,0-202.3,91-202.1,202.4c0.1,54,21.4,103,56,139.2l-29.1,29.1c-12.3,12.3-3.6,33.4,13.8,33.4
	h109.2c10.8,0,19.6-8.8,19.6-19.6V328.3c0-17.4-21.1-26.1-33.4-13.8l-34,34c-23.5-25.1-36.6-57.7-36.9-92.3
	c-0.7-75.3,60.3-138.7,138.1-138.1L293,52.9z"/>
<path class="st1" d="M131.7,446.3c-5.4,0-7.6-4.1-8.1-5.4c-0.5-1.3-1.9-5.7,1.9-9.5l29.1-29.1c4.2-4.2,4.2-10.9,0.2-15.1
	c-34.1-35.7-52.9-82.4-53-131.8c-0.1-51,19.8-99.1,56-135.4c33.7-33.7,77.6-53.4,124.7-56l0.8,43.6c-36,2.3-69.4,17.5-94.9,43.2
	c-28,28.3-43.3,65.7-42.9,105.4c0.3,37.1,14.5,72.5,39.8,99.5c2,2.1,4.8,3.4,7.7,3.4c0.1,0,0.1,0,0.2,0c2.9,0,5.6-1.1,7.6-3.2l34-34
	c1.7-1.7,3.8-2.6,6-2.6c3.7,0,8.9,2.7,8.9,8.8v109.2c0,4.8-3.9,8.8-8.8,8.8H131.7z"/>
<path class="st0" d="M354.4,499.8c-6.8,0-11-2.9-13.4-5.3c-3.2-3.3-5-7.7-5.5-13.4c-4.5-2.4-7.9-6.4-9.2-11.4
	c-1.6-5.9-0.1-12.1,4-16.8c-0.8,0.1-1.5,0.1-1.9,0.1c0,0,0,0,0,0c-0.9,0-1.7-0.1-2.4-0.2c-8.7-1.5-14.3-8.3-14.5-17.8
	c0-0.1,0-0.1,0-0.2c0-6.7,2.7-12,7.6-15.2c-4-0.1-11.8-0.8-15.8-8.2c0,0-0.1-0.1-0.1-0.2c-4-7.5-2.8-16.5,3.1-22.3
	c0.1-0.1,0.2-0.2,0.2-0.2c0.1-0.1,0.3-0.3,0.4-0.4c-7.8-0.8-12.2-4.6-14.6-12c-2.6-8.1,0.9-17.3,8-21.5c0.4-0.2,0.8-0.4,1.3-0.7
	c-6-3.1-10.3-9.7-10.3-16.9c0-8.2,3.5-13.3,11.4-16.2c-5.5-2.1-8.3-6.3-9.9-10.1c-1.9-4.6-1.9-9.9,0.1-14.6c1.8-4.1,4.8-7.2,8.7-9
	c-4.9-2.4-8.5-6.8-9.8-12.2c-1.5-6.3,0.3-12.8,4.9-17.4c1.6-1.6,3-2.7,5.8-3.7c-2.1-1-4.1-2.3-5.7-3.9c-6.6-6.6-7.3-16.1-1.8-23.8
	c2.1-2.9,4.5-4.6,7.4-5.6c-5.1-1.7-8.3-5.2-10.1-11.1c-2.6-8.1,0.9-17.3,8-21.5c0.4-0.3,0.8-0.5,1.5-0.7c-2.1-1.1-4-2.6-5.3-3.9
	c-4.4-4.4-4.8-9.8-5.1-18.2c-0.3-8.6-0.3-24-0.3-52.7c0-29.8,0-44.8,0.3-53.2c0.3-8.1,0.8-13.3,5.3-17.7c3.7-3.7,8.4-5.7,13.4-5.7
	c4.8,0,9.4,1.9,12.8,5.3c4.2,4.2,4.6,9.5,5,17.8c0.3,7.9,0.3,21.6,0.3,47.3l0,43.1l24.6-3.1l27.2-3.4V93.5l0.1-59.2
	c0-2.9,1.1-5.6,3.2-7.6l13.3-13.3c2-2,4.8-3.2,7.6-3.2s5.6,1.1,7.6,3.2c4.4,4.4,4.8,9.9,5.1,19.3c0.3,9.4,0.4,25.5,0.4,58
	c0.1,20.5,0.1,68.7-0.9,73c-1.1,4.7-3.1,9.8-9.7,12.7c6.2,3,10.3,9.2,10.2,16.3c0.1,5-1.7,9.5-5.3,13.1c-1.6,1.6-3.1,2.7-6,3.7
	c1.5,0.6,2.9,1.5,4.2,2.6c6.7,5.6,9.1,13.6,6,20.8c-0.9,2.3-2.6,4.9-4.3,6.6c-1.1,1.2-2,2.1-5.1,3c0.1,0,0.2,0.1,0.3,0.1
	c6.9,3.5,11.3,12.1,10.1,19.4c0,0.1,0,0.2-0.1,0.3c-0.7,3.4-2.9,7.4-5.5,10.1c-1.5,1.5-2.8,2.5-5.4,3.5c6.4,3,11,9.7,11,17
	c0.1,7.2-3.9,13.4-10.3,16.5c8,3.6,12.2,13.2,9.6,22c-1.3,4.3-3.5,8.8-9.5,11.5c6.2,3,10.3,9.2,10.3,16.3c0.1,5-1.7,9.6-5.3,13.1
	c-2.5,2.5-4.8,3.9-13.2,5.4c4.6,3.2,7.5,8.5,7.5,14.6c0.1,5-1.8,9.6-5.4,13.2c-2.7,2.7-5.3,4.1-13.6,5.6c6.9,2.5,11.2,8.6,11.3,16.9
	c0,0,0,0.1,0,0.1c0,8.8-4.6,15.2-12.8,17.6l0,0c-0.7,0.2-1.9,0.4-3.5,0.7c4.2,3.5,6.5,8.1,6.7,13.9c0,0,0,0.1,0,0.1
	c0.1,3.5-0.8,14.6-15.8,18.4c-0.1,2.5-0.4,5.7-1,7.7c-2.3,8-8.8,12.8-17.6,13C354.5,499.8,354.4,499.8,354.4,499.8z"/>
<path class="st1" d="M354.4,489c4-0.1,6.4-1.7,7.4-5.1c0.3-1.1,0.7-4.7,0.7-8l0.1-6l5.6-0.8c6.7-1.1,10.1-3.8,10-8.1
	c-0.1-3.3-1.4-5.3-4.6-7.2c-3.2-1.9-31.8,2.9-34.8,5.9c-4.4,4.4-2.2,11.1,4,12.6l3.5,0.9l-0.1,3.8C346,485.2,348.6,489,354.4,489z
	 M382.7,435.6c3.5-1,5-3.2,5-7.2c-0.1-4.5-2-6.8-6.2-7.4c-3.1-0.3-50.2,5.4-54.1,6.6c-3.5,1-5,3.2-5,7.2c0.1,4.2,1.8,6.6,5.6,7.3
	C330.5,442.6,378.7,436.8,382.7,435.6z M355.5,405.1c30.4-4.1,35.7-5.1,37.6-7c1.6-1.6,2.3-3.3,2.2-5.5c0.1-4.1-2.9-7-7-7.2
	c-1.7-0.1-18.6,1.8-37.5,4.4c-30,4-34.8,4.9-36.9,6.8c-2.4,2.4-2.9,6.3-1.2,9.6C314.9,409.9,319.9,409.8,355.5,405.1z M355.1,372.9
	c40.7-5.1,47.2-6.2,49.1-8.1c1.5-1.5,2.2-3.2,2.1-5.4c0.1-3.7-2.5-6.6-6-7.3c-3.4-0.6-92.2,10.6-94.5,12c-2.8,1.6-4.3,5.6-3.3,8.8
	C304.7,379.2,304.6,379.2,355.1,372.9z M401.7,333.4c2.7-0.8,3.5-1.8,4.5-5c1.1-3.7-0.8-7.9-4-9.2c-1.8-0.7-18.4,0.9-48.7,4.7
	c-50.4,6.3-51.1,6.5-51.1,13.3c0,3.6,3.1,7.5,6.2,7.9C310.6,345.3,398.7,334.3,401.7,333.4z M311.9,311.5
	c5.2-0.3,86.8-10.7,89.2-11.3c3.4-1,5.5-3.8,5.4-7.2c0.1-3.8-3.3-7.5-6.9-7.8c-3.5-0.3-90.3,10.9-93,11.9c-3.5,1.3-5.2,5.9-3.6,9.7
	C304.4,310.5,306.8,311.7,311.9,311.5z M355.6,272.9c39.8-5,46.5-6.1,48.4-8c1.2-1.2,2.3-3.3,2.6-4.6c0.5-2.7-1.7-6.6-4.4-8
	c-1-0.5-22.8,1.8-48.5,4.9c-41.1,5.1-47.1,6.1-49.1,8.1c-4.1,4.1-2.5,10.9,3.1,12.7C308.6,278.4,330.2,276,355.6,272.9z M404,232.2
	c0.7-0.7,1.8-2.3,2.2-3.4c1.2-2.7,0.1-5.8-3.1-8.4c-2.5-2.1-3.9-2.1-50,3.6c-45.7,5.7-47.4,6-49.3,8.7c-2.4,3.3-2.1,7.1,0.7,9.9
	c1.2,1.2,3.3,2.2,4.6,2.3C314.8,245.4,402.7,233.6,404,232.2z M355.1,206.3c40.7-5.1,47.2-6.2,49.1-8.1c1.5-1.5,2.2-3.3,2.1-5.4
	c0.1-3.7-2.5-6.6-6-7.3c-3.4-0.6-92.2,10.6-94.5,12c-2.8,1.6-4.3,5.6-3.3,8.9C304.7,212.6,304.6,212.6,355.1,206.3z M391.1,34.3
	l-0.1,59.1v59.2l-36.7,4.6l-36.8,4.6l0-55.3c0-50.4-0.2-55.5-2.1-57.5c-3.1-3.1-7.8-2.9-11,0.3c-2.4,2.4-2.4,4.5-2.4,63.3
	c0,57.4,0.1,61,2.3,63.2c1.2,1.2,3.1,2.3,4.1,2.5c2.2,0.3,90.3-10.8,93.2-11.7c2.9-0.9,3.6-1.8,4.5-5.5c0.4-1.7,0.7-33.5,0.6-70.6
	c0-63-0.2-67.6-2.3-69.7L391.1,34.3z"/>
</svg>
