<svg xmlns="http://www.w3.org/2000/svg" xmlns:xlink="http://www.w3.org/1999/xlink" id="Layer_1" x="0" y="0" version="1.1" viewBox="0 0 512 512" xml:space="preserve" style="enable-background:new 0 0 512 512"><style type="text/css">.st0{fill:#2d2d30}.st1{fill:#c5c5c5}</style><path d="M489.7,225.9h-29.1c-13.3-89.7-84.3-160.6-174-174V22.8c0-6.3-5.1-11.5-11.5-11.5h-38.3	c-6.3,0-11.5,5.1-11.5,11.5v29.1c-89.7,13.3-160.6,84.3-174,174H22.3c-6.3,0-11.5,5.1-11.5,11.5v38.3c0,6.3,5.1,11.5,11.5,11.5h29.1	c13.3,89.7,84.3,160.6,174,174v29.1c0,6.3,5.1,11.5,11.5,11.5h38.3c6.3,0,11.5-5.1,11.5-11.5v-29.1c89.7-13.3,160.6-84.3,174-174	h29.1c6.3,0,11.5-5.1,11.5-11.5v-38.3C501.2,231,496.1,225.9,489.7,225.9z M286.6,398.9v-38.9c0-6.3-5.1-11.5-11.5-11.5h-38.3	c-6.3,0-11.5,5.1-11.5,11.5v38.9c-55.7-11.9-99.8-55.9-111.7-111.7h38.9c6.3,0,11.5-5.1,11.5-11.5v-38.3c0-6.3-5.1-11.5-11.5-11.5	h-38.9c11.9-55.7,55.9-99.8,111.7-111.7v38.9c0,6.3,5.1,11.5,11.5,11.5h38.3c6.3,0,11.5-5.1,11.5-11.5v-38.9	c55.7,11.9,99.8,55.9,111.7,111.7h-38.9c-6.3,0-11.5,5.1-11.5,11.5v38.3c0,6.3,5.1,11.5,11.5,11.5h38.9	C386.5,342.9,342.4,387,286.6,398.9z M286.6,256.5c0,16.9-13.7,30.6-30.6,30.6s-30.6-13.7-30.6-30.6s13.7-30.6,30.6-30.6	S286.6,239.6,286.6,256.5z" class="st0"/><path d="M238.3,488.8v-27.6c0-6.4-4.7-11.8-11-12.8c-41.3-6.1-78.7-25-108.4-54.7C89.2,364,70.3,326.5,64.2,285.3	c-0.9-6.3-6.4-11-12.8-11H23.7v-35.4h27.6c6.4,0,11.8-4.7,12.8-11c6.1-41.3,25-78.7,54.7-108.4c29.7-29.7,67.1-48.6,108.4-54.7	c6.3-0.9,11-6.4,11-12.8V24.2h35.4v27.6c0,6.4,4.7,11.8,11,12.8c41.3,6.1,78.7,25,108.4,54.7c29.7,29.7,48.6,67.1,54.7,108.4	c0.9,6.3,6.4,11,12.8,11h27.6v35.4h-27.6c-6.4,0-11.8,4.7-12.8,11c-6.1,41.3-25,78.7-54.7,108.4s-67.1,48.6-108.4,54.7	c-6.3,0.9-11,6.4-11,12.8v27.6H238.3z M273.7,398.9c0,3.9,1.8,7.6,4.8,10.1c2.3,1.9,5.2,2.9,8.1,2.9c0.9,0,1.8-0.1,2.7-0.3	c60.9-13,108.7-60.7,121.7-121.7c0.8-3.8-0.1-7.8-2.6-10.8c-2.5-3-6.1-4.8-10.1-4.8h-37.5v-35.4h37.5c3.9,0,7.6-1.8,10.1-4.8	c2.5-3,3.4-7,2.6-10.8c-13-60.9-60.7-108.7-121.7-121.7c-0.9-0.2-1.8-0.3-2.7-0.3c-2.9,0-5.8,1-8.1,2.9c-3,2.5-4.8,6.1-4.8,10.1	v37.5h-35.4v-37.5c0-3.9-1.8-7.6-4.8-10.1c-2.3-1.9-5.2-2.9-8.1-2.9c-0.9,0-1.8,0.1-2.7,0.3c-60.9,13-108.7,60.7-121.7,121.7	c-0.8,3.8,0.1,7.8,2.6,10.8c2.5,3,6.1,4.8,10.1,4.8h37.5v35.4h-37.5c-3.9,0-7.6,1.8-10.1,4.8c-2.5,3-3.4,7-2.6,10.8	c13,60.9,60.7,108.7,121.7,121.7c0.9,0.2,1.8,0.3,2.7,0.3c2.9,0,5.8-1,8.1-2.9c3-2.5,4.8-6.1,4.8-10.1v-37.5h35.4V398.9z M256,274.2	c-9.8,0-17.7-7.9-17.7-17.7c0-9.8,7.9-17.7,17.7-17.7c9.8,0,17.7,7.9,17.7,17.7C273.7,266.3,265.8,274.2,256,274.2z" class="st1"/></svg>